<mxfile host="app.diagrams.net" modified="2023-11-07T21:03:24.235Z" agent="Mozilla/5.0 (Windows NT 10.0; Win64; x64) AppleWebKit/537.36 (KHTML, like Gecko) Chrome/119.0.0.0 Safari/537.36" etag="13pEn1lFKg20yUfP5e4e" version="22.0.8" type="github" pages="3">
  <diagram name="diagrama de Gantt" id="8378b5f6-a2b2-b727-a746-972ab9d02e00">
    <mxGraphModel dx="1811" dy="840" grid="1" gridSize="10" guides="1" tooltips="1" connect="0" arrows="1" fold="1" page="1" pageScale="1.5" pageWidth="1169" pageHeight="827" background="none" math="0" shadow="0">
      <root>
        <mxCell id="0" />
        <mxCell id="1" parent="0" />
        <mxCell id="2izNmpZ97XsuF3mflQXR-452" value="" style="strokeColor=#DEEDFF;container=0;" vertex="1" parent="1">
          <mxGeometry x="1401.8447854783544" y="329.9999999999997" width="12.340710880608798" height="379.9999999999975" as="geometry" />
        </mxCell>
        <mxCell id="2izNmpZ97XsuF3mflQXR-453" value="" style="strokeColor=#DEEDFF;container=0;" vertex="1" parent="1">
          <mxGeometry x="1414.185496358963" y="329.9999999999997" width="12.340710880608798" height="379.9999999999975" as="geometry" />
        </mxCell>
        <mxCell id="2izNmpZ97XsuF3mflQXR-454" value="" style="strokeColor=#DEEDFF;container=0;" vertex="1" parent="1">
          <mxGeometry x="1426.5262072395722" y="329.9999999999997" width="12.340710880608798" height="379.9999999999975" as="geometry" />
        </mxCell>
        <mxCell id="2izNmpZ97XsuF3mflQXR-455" value="" style="strokeColor=#DEEDFF;container=0;" vertex="1" parent="1">
          <mxGeometry x="1438.8669181201808" y="329.9999999999997" width="12.340710880608798" height="379.9999999999975" as="geometry" />
        </mxCell>
        <mxCell id="2izNmpZ97XsuF3mflQXR-456" value="" style="strokeColor=#DEEDFF;container=0;" vertex="1" parent="1">
          <mxGeometry x="1451.20762900079" y="329.9999999999997" width="12.340710880608798" height="379.9999999999975" as="geometry" />
        </mxCell>
        <mxCell id="2izNmpZ97XsuF3mflQXR-457" value="" style="strokeColor=#DEEDFF;fillColor=#D4E1FF;container=0;" vertex="1" parent="1">
          <mxGeometry x="1463.5483398813985" y="329.9999999999997" width="12.340710880608798" height="379.9999999999975" as="geometry" />
        </mxCell>
        <mxCell id="2izNmpZ97XsuF3mflQXR-458" value="" style="strokeColor=#DEEDFF;fillColor=#D4E1FF;container=0;" vertex="1" parent="1">
          <mxGeometry x="1475.8890507620072" y="329.9999999999997" width="12.340710880608798" height="379.9999999999975" as="geometry" />
        </mxCell>
        <mxCell id="2izNmpZ97XsuF3mflQXR-459" value="30 Dic 23" style="fillColor=#23445D;strokeColor=#FFFFFF;strokeWidth=2;fontColor=#FFFFFF;fontStyle=1;container=0;" vertex="1" parent="1">
          <mxGeometry x="1401.8447854783553" y="290.0000000000001" width="86.38497616426162" height="19.99999999999987" as="geometry" />
        </mxCell>
        <mxCell id="2izNmpZ97XsuF3mflQXR-460" value="L" style="fillColor=#23445D;strokeColor=#FFFFFF;strokeWidth=2;fontColor=#FFFFFF;fontStyle=1;container=0;" vertex="1" parent="1">
          <mxGeometry x="1401.8447854783553" y="310" width="12.340710880608798" height="19.99999999999987" as="geometry" />
        </mxCell>
        <mxCell id="2izNmpZ97XsuF3mflQXR-461" value="M" style="fillColor=#23445D;strokeColor=#FFFFFF;strokeWidth=2;fontColor=#FFFFFF;fontStyle=1;container=0;" vertex="1" parent="1">
          <mxGeometry x="1414.1854963589644" y="310" width="12.340710880608798" height="19.99999999999987" as="geometry" />
        </mxCell>
        <mxCell id="2izNmpZ97XsuF3mflQXR-462" value="M" style="fillColor=#23445D;strokeColor=#FFFFFF;strokeWidth=2;fontColor=#FFFFFF;fontStyle=1;container=0;" vertex="1" parent="1">
          <mxGeometry x="1426.526207239573" y="310" width="12.340710880608798" height="19.99999999999987" as="geometry" />
        </mxCell>
        <mxCell id="2izNmpZ97XsuF3mflQXR-463" value="J" style="fillColor=#23445D;strokeColor=#FFFFFF;strokeWidth=2;fontColor=#FFFFFF;fontStyle=1;container=0;" vertex="1" parent="1">
          <mxGeometry x="1438.8669181201822" y="310" width="12.340710880608798" height="19.99999999999987" as="geometry" />
        </mxCell>
        <mxCell id="2izNmpZ97XsuF3mflQXR-464" value="V" style="fillColor=#23445D;strokeColor=#FFFFFF;strokeWidth=2;fontColor=#FFFFFF;fontStyle=1;container=0;" vertex="1" parent="1">
          <mxGeometry x="1451.2076290007903" y="310" width="12.340710880608798" height="19.99999999999987" as="geometry" />
        </mxCell>
        <mxCell id="2izNmpZ97XsuF3mflQXR-465" value="S" style="fillColor=#23445D;strokeColor=#FFFFFF;strokeWidth=2;fontColor=#FFFFFF;fontStyle=1;container=0;" vertex="1" parent="1">
          <mxGeometry x="1463.5483398813994" y="310" width="12.340710880608798" height="19.99999999999987" as="geometry" />
        </mxCell>
        <mxCell id="2izNmpZ97XsuF3mflQXR-466" value="D" style="fillColor=#23445D;strokeColor=#FFFFFF;strokeWidth=2;fontColor=#FFFFFF;fontStyle=1;container=0;" vertex="1" parent="1">
          <mxGeometry x="1475.8890507620085" y="310" width="12.340710880608798" height="19.99999999999987" as="geometry" />
        </mxCell>
        <mxCell id="2izNmpZ97XsuF3mflQXR-285" value="" style="strokeColor=#DEEDFF;fillColor=#D4E1FF;container=0;" vertex="1" parent="1">
          <mxGeometry x="1204.3983875528752" y="329.9999999999997" width="12.340710880608798" height="379.9999999999975" as="geometry" />
        </mxCell>
        <mxCell id="2izNmpZ97XsuF3mflQXR-286" value="" style="strokeColor=#DEEDFF;fillColor=#D4E1FF;container=0;" vertex="1" parent="1">
          <mxGeometry x="1216.7390984334838" y="329.9999999999997" width="12.340710880608798" height="379.9999999999975" as="geometry" />
        </mxCell>
        <mxCell id="2izNmpZ97XsuF3mflQXR-293" value="S" style="fillColor=#23445D;strokeColor=#FFFFFF;strokeWidth=2;fontColor=#FFFFFF;fontStyle=1;container=0;" vertex="1" parent="1">
          <mxGeometry x="1204.398387552876" y="310" width="12.340710880608798" height="19.99999999999987" as="geometry" />
        </mxCell>
        <mxCell id="2izNmpZ97XsuF3mflQXR-294" value="D" style="fillColor=#23445D;strokeColor=#FFFFFF;strokeWidth=2;fontColor=#FFFFFF;fontStyle=1;container=0;" vertex="1" parent="1">
          <mxGeometry x="1216.739098433485" y="310" width="12.340710880608798" height="19.99999999999987" as="geometry" />
        </mxCell>
        <mxCell id="2izNmpZ97XsuF3mflQXR-370" value="" style="strokeColor=#DEEDFF;container=0;" vertex="1" parent="1">
          <mxGeometry x="1229.079809314093" y="329.9999999999997" width="12.340710880608798" height="379.9999999999975" as="geometry" />
        </mxCell>
        <mxCell id="2izNmpZ97XsuF3mflQXR-371" value="" style="strokeColor=#DEEDFF;container=0;" vertex="1" parent="1">
          <mxGeometry x="1241.4205201947016" y="329.9999999999997" width="12.340710880608798" height="379.9999999999975" as="geometry" />
        </mxCell>
        <mxCell id="2izNmpZ97XsuF3mflQXR-372" value="" style="strokeColor=#DEEDFF;container=0;" vertex="1" parent="1">
          <mxGeometry x="1253.7612310753104" y="329.9999999999997" width="12.340710880608798" height="379.9999999999975" as="geometry" />
        </mxCell>
        <mxCell id="2izNmpZ97XsuF3mflQXR-373" value="" style="strokeColor=#DEEDFF;container=0;" vertex="1" parent="1">
          <mxGeometry x="1266.101941955919" y="329.9999999999997" width="12.340710880608798" height="379.9999999999975" as="geometry" />
        </mxCell>
        <mxCell id="2izNmpZ97XsuF3mflQXR-374" value="" style="strokeColor=#DEEDFF;container=0;" vertex="1" parent="1">
          <mxGeometry x="1278.442652836528" y="329.9999999999997" width="12.340710880608798" height="379.9999999999975" as="geometry" />
        </mxCell>
        <mxCell id="2izNmpZ97XsuF3mflQXR-375" value="" style="strokeColor=#DEEDFF;fillColor=#D4E1FF;container=0;" vertex="1" parent="1">
          <mxGeometry x="1290.7833637171366" y="329.9999999999997" width="12.340710880608798" height="379.9999999999975" as="geometry" />
        </mxCell>
        <mxCell id="2izNmpZ97XsuF3mflQXR-376" value="" style="strokeColor=#DEEDFF;fillColor=#D4E1FF;container=0;" vertex="1" parent="1">
          <mxGeometry x="1303.1240745977457" y="329.9999999999997" width="12.340710880608798" height="379.9999999999975" as="geometry" />
        </mxCell>
        <mxCell id="2izNmpZ97XsuF3mflQXR-377" value="16 Dic 23" style="fillColor=#23445D;strokeColor=#FFFFFF;strokeWidth=2;fontColor=#FFFFFF;fontStyle=1;container=0;" vertex="1" parent="1">
          <mxGeometry x="1229.0798093140938" y="290.0000000000001" width="86.38497616426162" height="19.99999999999987" as="geometry" />
        </mxCell>
        <mxCell id="2izNmpZ97XsuF3mflQXR-378" value="L" style="fillColor=#23445D;strokeColor=#FFFFFF;strokeWidth=2;fontColor=#FFFFFF;fontStyle=1;container=0;" vertex="1" parent="1">
          <mxGeometry x="1229.0798093140938" y="310" width="12.340710880608798" height="19.99999999999987" as="geometry" />
        </mxCell>
        <mxCell id="2izNmpZ97XsuF3mflQXR-379" value="M" style="fillColor=#23445D;strokeColor=#FFFFFF;strokeWidth=2;fontColor=#FFFFFF;fontStyle=1;container=0;" vertex="1" parent="1">
          <mxGeometry x="1241.4205201947025" y="310" width="12.340710880608798" height="19.99999999999987" as="geometry" />
        </mxCell>
        <mxCell id="2izNmpZ97XsuF3mflQXR-380" value="M" style="fillColor=#23445D;strokeColor=#FFFFFF;strokeWidth=2;fontColor=#FFFFFF;fontStyle=1;container=0;" vertex="1" parent="1">
          <mxGeometry x="1253.7612310753116" y="310" width="12.340710880608798" height="19.99999999999987" as="geometry" />
        </mxCell>
        <mxCell id="2izNmpZ97XsuF3mflQXR-381" value="J" style="fillColor=#23445D;strokeColor=#FFFFFF;strokeWidth=2;fontColor=#FFFFFF;fontStyle=1;container=0;" vertex="1" parent="1">
          <mxGeometry x="1266.1019419559202" y="310" width="12.340710880608798" height="19.99999999999987" as="geometry" />
        </mxCell>
        <mxCell id="2izNmpZ97XsuF3mflQXR-382" value="V" style="fillColor=#23445D;strokeColor=#FFFFFF;strokeWidth=2;fontColor=#FFFFFF;fontStyle=1;container=0;" vertex="1" parent="1">
          <mxGeometry x="1278.442652836529" y="310" width="12.340710880608798" height="19.99999999999987" as="geometry" />
        </mxCell>
        <mxCell id="2izNmpZ97XsuF3mflQXR-383" value="S" style="fillColor=#23445D;strokeColor=#FFFFFF;strokeWidth=2;fontColor=#FFFFFF;fontStyle=1;container=0;" vertex="1" parent="1">
          <mxGeometry x="1290.7833637171377" y="310" width="12.340710880608798" height="19.99999999999987" as="geometry" />
        </mxCell>
        <mxCell id="2izNmpZ97XsuF3mflQXR-384" value="D" style="fillColor=#23445D;strokeColor=#FFFFFF;strokeWidth=2;fontColor=#FFFFFF;fontStyle=1;container=0;" vertex="1" parent="1">
          <mxGeometry x="1303.1240745977466" y="310" width="12.340710880608798" height="19.99999999999987" as="geometry" />
        </mxCell>
        <mxCell id="2izNmpZ97XsuF3mflQXR-385" value="" style="strokeColor=#DEEDFF;container=0;" vertex="1" parent="1">
          <mxGeometry x="1315.4647854783543" y="329.9999999999997" width="12.340710880608798" height="379.9999999999975" as="geometry" />
        </mxCell>
        <mxCell id="2izNmpZ97XsuF3mflQXR-386" value="" style="strokeColor=#DEEDFF;container=0;" vertex="1" parent="1">
          <mxGeometry x="1327.805496358963" y="329.9999999999997" width="12.340710880608798" height="379.9999999999975" as="geometry" />
        </mxCell>
        <mxCell id="2izNmpZ97XsuF3mflQXR-387" value="" style="strokeColor=#DEEDFF;container=0;" vertex="1" parent="1">
          <mxGeometry x="1340.146207239572" y="329.9999999999997" width="12.340710880608798" height="379.9999999999975" as="geometry" />
        </mxCell>
        <mxCell id="2izNmpZ97XsuF3mflQXR-388" value="" style="strokeColor=#DEEDFF;container=0;" vertex="1" parent="1">
          <mxGeometry x="1352.4869181201807" y="329.9999999999997" width="12.340710880608798" height="379.9999999999975" as="geometry" />
        </mxCell>
        <mxCell id="2izNmpZ97XsuF3mflQXR-389" value="" style="strokeColor=#DEEDFF;container=0;" vertex="1" parent="1">
          <mxGeometry x="1364.8276290007898" y="329.9999999999997" width="12.340710880608798" height="379.9999999999975" as="geometry" />
        </mxCell>
        <mxCell id="2izNmpZ97XsuF3mflQXR-390" value="" style="strokeColor=#DEEDFF;fillColor=#D4E1FF;container=0;" vertex="1" parent="1">
          <mxGeometry x="1377.1683398813984" y="329.9999999999997" width="12.340710880608798" height="379.9999999999975" as="geometry" />
        </mxCell>
        <mxCell id="2izNmpZ97XsuF3mflQXR-391" value="" style="strokeColor=#DEEDFF;fillColor=#D4E1FF;container=0;" vertex="1" parent="1">
          <mxGeometry x="1389.509050762007" y="329.9999999999997" width="12.340710880608798" height="379.9999999999975" as="geometry" />
        </mxCell>
        <mxCell id="2izNmpZ97XsuF3mflQXR-392" value="23 Dic 23" style="fillColor=#23445D;strokeColor=#FFFFFF;strokeWidth=2;fontColor=#FFFFFF;fontStyle=1;container=0;" vertex="1" parent="1">
          <mxGeometry x="1315.4647854783552" y="290.0000000000001" width="86.38497616426162" height="19.99999999999987" as="geometry" />
        </mxCell>
        <mxCell id="2izNmpZ97XsuF3mflQXR-393" value="L" style="fillColor=#23445D;strokeColor=#FFFFFF;strokeWidth=2;fontColor=#FFFFFF;fontStyle=1;container=0;" vertex="1" parent="1">
          <mxGeometry x="1315.4647854783552" y="310" width="12.340710880608798" height="19.99999999999987" as="geometry" />
        </mxCell>
        <mxCell id="2izNmpZ97XsuF3mflQXR-394" value="M" style="fillColor=#23445D;strokeColor=#FFFFFF;strokeWidth=2;fontColor=#FFFFFF;fontStyle=1;container=0;" vertex="1" parent="1">
          <mxGeometry x="1327.8054963589643" y="310" width="12.340710880608798" height="19.99999999999987" as="geometry" />
        </mxCell>
        <mxCell id="2izNmpZ97XsuF3mflQXR-395" value="M" style="fillColor=#23445D;strokeColor=#FFFFFF;strokeWidth=2;fontColor=#FFFFFF;fontStyle=1;container=0;" vertex="1" parent="1">
          <mxGeometry x="1340.146207239573" y="310" width="12.340710880608798" height="19.99999999999987" as="geometry" />
        </mxCell>
        <mxCell id="2izNmpZ97XsuF3mflQXR-396" value="J" style="fillColor=#23445D;strokeColor=#FFFFFF;strokeWidth=2;fontColor=#FFFFFF;fontStyle=1;container=0;" vertex="1" parent="1">
          <mxGeometry x="1352.486918120182" y="310" width="12.340710880608798" height="19.99999999999987" as="geometry" />
        </mxCell>
        <mxCell id="2izNmpZ97XsuF3mflQXR-397" value="V" style="fillColor=#23445D;strokeColor=#FFFFFF;strokeWidth=2;fontColor=#FFFFFF;fontStyle=1;container=0;" vertex="1" parent="1">
          <mxGeometry x="1364.8276290007905" y="310" width="12.340710880608798" height="19.99999999999987" as="geometry" />
        </mxCell>
        <mxCell id="2izNmpZ97XsuF3mflQXR-398" value="S" style="fillColor=#23445D;strokeColor=#FFFFFF;strokeWidth=2;fontColor=#FFFFFF;fontStyle=1;container=0;" vertex="1" parent="1">
          <mxGeometry x="1377.1683398813993" y="310" width="12.340710880608798" height="19.99999999999987" as="geometry" />
        </mxCell>
        <mxCell id="2izNmpZ97XsuF3mflQXR-399" value="D" style="fillColor=#23445D;strokeColor=#FFFFFF;strokeWidth=2;fontColor=#FFFFFF;fontStyle=1;container=0;" vertex="1" parent="1">
          <mxGeometry x="1389.5090507620084" y="310" width="12.340710880608798" height="19.99999999999987" as="geometry" />
        </mxCell>
        <mxCell id="2izNmpZ97XsuF3mflQXR-402" value="" style="strokeColor=#DEEDFF;container=0;" vertex="1" parent="1">
          <mxGeometry x="1488.228198264149" y="329.9999999999997" width="12.340710880608798" height="379.9999999999975" as="geometry" />
        </mxCell>
        <mxCell id="2izNmpZ97XsuF3mflQXR-403" value="" style="strokeColor=#DEEDFF;container=0;" vertex="1" parent="1">
          <mxGeometry x="1500.5689091447575" y="329.9999999999997" width="12.340710880608798" height="379.9999999999975" as="geometry" />
        </mxCell>
        <mxCell id="2izNmpZ97XsuF3mflQXR-404" value="" style="strokeColor=#DEEDFF;container=0;" vertex="1" parent="1">
          <mxGeometry x="1512.9096200253666" y="329.9999999999997" width="12.340710880608798" height="379.9999999999975" as="geometry" />
        </mxCell>
        <mxCell id="2izNmpZ97XsuF3mflQXR-405" value="" style="strokeColor=#DEEDFF;container=0;" vertex="1" parent="1">
          <mxGeometry x="1525.2503309059753" y="329.9999999999997" width="12.340710880608798" height="379.9999999999975" as="geometry" />
        </mxCell>
        <mxCell id="2izNmpZ97XsuF3mflQXR-406" value="" style="strokeColor=#DEEDFF;container=0;" vertex="1" parent="1">
          <mxGeometry x="1537.591041786584" y="329.9999999999997" width="12.340710880608798" height="379.9999999999975" as="geometry" />
        </mxCell>
        <mxCell id="2izNmpZ97XsuF3mflQXR-407" value="" style="strokeColor=#DEEDFF;fillColor=#D4E1FF;container=0;" vertex="1" parent="1">
          <mxGeometry x="1549.9317526671928" y="329.9999999999997" width="12.340710880608798" height="379.9999999999975" as="geometry" />
        </mxCell>
        <mxCell id="2izNmpZ97XsuF3mflQXR-408" value="" style="strokeColor=#DEEDFF;fillColor=#D4E1FF;container=0;" vertex="1" parent="1">
          <mxGeometry x="1562.2724635478016" y="329.9999999999997" width="12.340710880608798" height="379.9999999999975" as="geometry" />
        </mxCell>
        <mxCell id="2izNmpZ97XsuF3mflQXR-409" value="06 Ene 24" style="fillColor=#23445D;strokeColor=#FFFFFF;strokeWidth=2;fontColor=#FFFFFF;fontStyle=1;container=0;" vertex="1" parent="1">
          <mxGeometry x="1488.2281982641498" y="290.0000000000001" width="86.38497616426162" height="19.99999999999987" as="geometry" />
        </mxCell>
        <mxCell id="2izNmpZ97XsuF3mflQXR-410" value="L" style="fillColor=#23445D;strokeColor=#FFFFFF;strokeWidth=2;fontColor=#FFFFFF;fontStyle=1;container=0;" vertex="1" parent="1">
          <mxGeometry x="1488.2281982641498" y="310" width="12.340710880608798" height="19.99999999999987" as="geometry" />
        </mxCell>
        <mxCell id="2izNmpZ97XsuF3mflQXR-411" value="M" style="fillColor=#23445D;strokeColor=#FFFFFF;strokeWidth=2;fontColor=#FFFFFF;fontStyle=1;container=0;" vertex="1" parent="1">
          <mxGeometry x="1500.568909144759" y="310" width="12.340710880608798" height="19.99999999999987" as="geometry" />
        </mxCell>
        <mxCell id="2izNmpZ97XsuF3mflQXR-412" value="M" style="fillColor=#23445D;strokeColor=#FFFFFF;strokeWidth=2;fontColor=#FFFFFF;fontStyle=1;container=0;" vertex="1" parent="1">
          <mxGeometry x="1512.9096200253675" y="310" width="12.340710880608798" height="19.99999999999987" as="geometry" />
        </mxCell>
        <mxCell id="2izNmpZ97XsuF3mflQXR-413" value="J" style="fillColor=#23445D;strokeColor=#FFFFFF;strokeWidth=2;fontColor=#FFFFFF;fontStyle=1;container=0;" vertex="1" parent="1">
          <mxGeometry x="1525.2503309059764" y="310" width="12.340710880608798" height="19.99999999999987" as="geometry" />
        </mxCell>
        <mxCell id="2izNmpZ97XsuF3mflQXR-414" value="V" style="fillColor=#23445D;strokeColor=#FFFFFF;strokeWidth=2;fontColor=#FFFFFF;fontStyle=1;container=0;" vertex="1" parent="1">
          <mxGeometry x="1537.5910417865848" y="310" width="12.340710880608798" height="19.99999999999987" as="geometry" />
        </mxCell>
        <mxCell id="2izNmpZ97XsuF3mflQXR-415" value="S" style="fillColor=#23445D;strokeColor=#FFFFFF;strokeWidth=2;fontColor=#FFFFFF;fontStyle=1;container=0;" vertex="1" parent="1">
          <mxGeometry x="1549.931752667194" y="310" width="12.340710880608798" height="19.99999999999987" as="geometry" />
        </mxCell>
        <mxCell id="2izNmpZ97XsuF3mflQXR-416" value="D" style="fillColor=#23445D;strokeColor=#FFFFFF;strokeWidth=2;fontColor=#FFFFFF;fontStyle=1;container=0;" vertex="1" parent="1">
          <mxGeometry x="1562.2724635478028" y="310" width="12.340710880608798" height="19.99999999999987" as="geometry" />
        </mxCell>
        <mxCell id="2izNmpZ97XsuF3mflQXR-417" value="" style="strokeColor=#DEEDFF;container=0;" vertex="1" parent="1">
          <mxGeometry x="1574.6116110499431" y="329.9999999999997" width="12.340710880608798" height="379.9999999999975" as="geometry" />
        </mxCell>
        <mxCell id="2izNmpZ97XsuF3mflQXR-418" value="" style="strokeColor=#DEEDFF;container=0;" vertex="1" parent="1">
          <mxGeometry x="1586.9523219305518" y="329.9999999999997" width="12.340710880608798" height="379.9999999999975" as="geometry" />
        </mxCell>
        <mxCell id="2izNmpZ97XsuF3mflQXR-419" value="" style="strokeColor=#DEEDFF;container=0;" vertex="1" parent="1">
          <mxGeometry x="1599.2930328111606" y="329.9999999999997" width="12.340710880608798" height="379.9999999999975" as="geometry" />
        </mxCell>
        <mxCell id="2izNmpZ97XsuF3mflQXR-420" value="" style="strokeColor=#DEEDFF;container=0;" vertex="1" parent="1">
          <mxGeometry x="1611.6337436917693" y="329.9999999999997" width="12.340710880608798" height="379.9999999999975" as="geometry" />
        </mxCell>
        <mxCell id="2izNmpZ97XsuF3mflQXR-421" value="" style="strokeColor=#DEEDFF;container=0;" vertex="1" parent="1">
          <mxGeometry x="1623.9744545723784" y="329.9999999999997" width="12.340710880608798" height="379.9999999999975" as="geometry" />
        </mxCell>
        <mxCell id="2izNmpZ97XsuF3mflQXR-422" value="" style="strokeColor=#DEEDFF;fillColor=#D4E1FF;container=0;" vertex="1" parent="1">
          <mxGeometry x="1636.315165452987" y="329.9999999999997" width="12.340710880608798" height="379.9999999999975" as="geometry" />
        </mxCell>
        <mxCell id="2izNmpZ97XsuF3mflQXR-423" value="" style="strokeColor=#DEEDFF;fillColor=#D4E1FF;container=0;" vertex="1" parent="1">
          <mxGeometry x="1648.6558763335959" y="329.9999999999997" width="12.340710880608798" height="379.9999999999975" as="geometry" />
        </mxCell>
        <mxCell id="2izNmpZ97XsuF3mflQXR-424" value="13 Ene 24" style="fillColor=#23445D;strokeColor=#FFFFFF;strokeWidth=2;fontColor=#FFFFFF;fontStyle=1;container=0;" vertex="1" parent="1">
          <mxGeometry x="1574.6116110499438" y="290.0000000000001" width="86.38497616426162" height="19.99999999999987" as="geometry" />
        </mxCell>
        <mxCell id="2izNmpZ97XsuF3mflQXR-425" value="L" style="fillColor=#23445D;strokeColor=#FFFFFF;strokeWidth=2;fontColor=#FFFFFF;fontStyle=1;container=0;" vertex="1" parent="1">
          <mxGeometry x="1574.6116110499438" y="310" width="12.340710880608798" height="19.99999999999987" as="geometry" />
        </mxCell>
        <mxCell id="2izNmpZ97XsuF3mflQXR-426" value="M" style="fillColor=#23445D;strokeColor=#FFFFFF;strokeWidth=2;fontColor=#FFFFFF;fontStyle=1;container=0;" vertex="1" parent="1">
          <mxGeometry x="1586.9523219305534" y="310" width="12.340710880608798" height="19.99999999999987" as="geometry" />
        </mxCell>
        <mxCell id="2izNmpZ97XsuF3mflQXR-427" value="M" style="fillColor=#23445D;strokeColor=#FFFFFF;strokeWidth=2;fontColor=#FFFFFF;fontStyle=1;container=0;" vertex="1" parent="1">
          <mxGeometry x="1599.2930328111618" y="310" width="12.340710880608798" height="19.99999999999987" as="geometry" />
        </mxCell>
        <mxCell id="2izNmpZ97XsuF3mflQXR-428" value="J" style="fillColor=#23445D;strokeColor=#FFFFFF;strokeWidth=2;fontColor=#FFFFFF;fontStyle=1;container=0;" vertex="1" parent="1">
          <mxGeometry x="1611.6337436917706" y="310" width="12.340710880608798" height="19.99999999999987" as="geometry" />
        </mxCell>
        <mxCell id="2izNmpZ97XsuF3mflQXR-429" value="V" style="fillColor=#23445D;strokeColor=#FFFFFF;strokeWidth=2;fontColor=#FFFFFF;fontStyle=1;container=0;" vertex="1" parent="1">
          <mxGeometry x="1623.974454572379" y="310" width="12.340710880608798" height="19.99999999999987" as="geometry" />
        </mxCell>
        <mxCell id="2izNmpZ97XsuF3mflQXR-430" value="S" style="fillColor=#23445D;strokeColor=#FFFFFF;strokeWidth=2;fontColor=#FFFFFF;fontStyle=1;container=0;" vertex="1" parent="1">
          <mxGeometry x="1636.315165452988" y="310" width="12.340710880608798" height="19.99999999999987" as="geometry" />
        </mxCell>
        <mxCell id="2izNmpZ97XsuF3mflQXR-431" value="D" style="fillColor=#23445D;strokeColor=#FFFFFF;strokeWidth=2;fontColor=#FFFFFF;fontStyle=1;container=0;" vertex="1" parent="1">
          <mxGeometry x="1648.655876333597" y="310" width="12.340710880608798" height="19.99999999999987" as="geometry" />
        </mxCell>
        <mxCell id="2izNmpZ97XsuF3mflQXR-432" value="" style="strokeColor=#DEEDFF;container=0;" vertex="1" parent="1">
          <mxGeometry x="1660.9950238357374" y="329.9999999999997" width="12.340710880608798" height="379.9999999999975" as="geometry" />
        </mxCell>
        <mxCell id="2izNmpZ97XsuF3mflQXR-433" value="" style="strokeColor=#DEEDFF;container=0;" vertex="1" parent="1">
          <mxGeometry x="1673.335734716346" y="329.9999999999997" width="12.340710880608798" height="379.9999999999975" as="geometry" />
        </mxCell>
        <mxCell id="2izNmpZ97XsuF3mflQXR-434" value="" style="strokeColor=#DEEDFF;container=0;" vertex="1" parent="1">
          <mxGeometry x="1685.6764455969549" y="329.9999999999997" width="12.340710880608798" height="379.9999999999975" as="geometry" />
        </mxCell>
        <mxCell id="2izNmpZ97XsuF3mflQXR-435" value="" style="strokeColor=#DEEDFF;container=0;" vertex="1" parent="1">
          <mxGeometry x="1698.0171564775635" y="329.9999999999997" width="12.340710880608798" height="379.9999999999975" as="geometry" />
        </mxCell>
        <mxCell id="2izNmpZ97XsuF3mflQXR-436" value="" style="strokeColor=#DEEDFF;container=0;" vertex="1" parent="1">
          <mxGeometry x="1710.3578673581726" y="329.9999999999997" width="12.340710880608798" height="379.9999999999975" as="geometry" />
        </mxCell>
        <mxCell id="2izNmpZ97XsuF3mflQXR-437" value="" style="strokeColor=#DEEDFF;fillColor=#D4E1FF;container=0;" vertex="1" parent="1">
          <mxGeometry x="1722.6985782387812" y="329.9999999999997" width="12.340710880608798" height="379.9999999999975" as="geometry" />
        </mxCell>
        <mxCell id="2izNmpZ97XsuF3mflQXR-438" value="" style="strokeColor=#DEEDFF;fillColor=#D4E1FF;container=0;" vertex="1" parent="1">
          <mxGeometry x="1735.03928911939" y="329.9999999999997" width="12.340710880608798" height="379.9999999999975" as="geometry" />
        </mxCell>
        <mxCell id="2izNmpZ97XsuF3mflQXR-439" value="20 Ene 24" style="fillColor=#23445D;strokeColor=#FFFFFF;strokeWidth=2;fontColor=#FFFFFF;fontStyle=1;container=0;" vertex="1" parent="1">
          <mxGeometry x="1660.995023835738" y="290.0000000000001" width="86.38497616426162" height="19.99999999999987" as="geometry" />
        </mxCell>
        <mxCell id="2izNmpZ97XsuF3mflQXR-440" value="L" style="fillColor=#23445D;strokeColor=#FFFFFF;strokeWidth=2;fontColor=#FFFFFF;fontStyle=1;container=0;" vertex="1" parent="1">
          <mxGeometry x="1660.995023835738" y="310" width="12.340710880608798" height="19.99999999999987" as="geometry" />
        </mxCell>
        <mxCell id="2izNmpZ97XsuF3mflQXR-441" value="M" style="fillColor=#23445D;strokeColor=#FFFFFF;strokeWidth=2;fontColor=#FFFFFF;fontStyle=1;container=0;" vertex="1" parent="1">
          <mxGeometry x="1673.3357347163474" y="310" width="12.340710880608798" height="19.99999999999987" as="geometry" />
        </mxCell>
        <mxCell id="2izNmpZ97XsuF3mflQXR-442" value="M" style="fillColor=#23445D;strokeColor=#FFFFFF;strokeWidth=2;fontColor=#FFFFFF;fontStyle=1;container=0;" vertex="1" parent="1">
          <mxGeometry x="1685.676445596956" y="310" width="12.340710880608798" height="19.99999999999987" as="geometry" />
        </mxCell>
        <mxCell id="2izNmpZ97XsuF3mflQXR-443" value="J" style="fillColor=#23445D;strokeColor=#FFFFFF;strokeWidth=2;fontColor=#FFFFFF;fontStyle=1;container=0;" vertex="1" parent="1">
          <mxGeometry x="1698.017156477565" y="310" width="12.340710880608798" height="19.99999999999987" as="geometry" />
        </mxCell>
        <mxCell id="2izNmpZ97XsuF3mflQXR-444" value="V" style="fillColor=#23445D;strokeColor=#FFFFFF;strokeWidth=2;fontColor=#FFFFFF;fontStyle=1;container=0;" vertex="1" parent="1">
          <mxGeometry x="1710.3578673581733" y="310" width="12.340710880608798" height="19.99999999999987" as="geometry" />
        </mxCell>
        <mxCell id="2izNmpZ97XsuF3mflQXR-445" value="S" style="fillColor=#23445D;strokeColor=#FFFFFF;strokeWidth=2;fontColor=#FFFFFF;fontStyle=1;container=0;" vertex="1" parent="1">
          <mxGeometry x="1722.6985782387821" y="310" width="12.340710880608798" height="19.99999999999987" as="geometry" />
        </mxCell>
        <mxCell id="2izNmpZ97XsuF3mflQXR-446" value="D" style="fillColor=#23445D;strokeColor=#FFFFFF;strokeWidth=2;fontColor=#FFFFFF;fontStyle=1;container=0;" vertex="1" parent="1">
          <mxGeometry x="1735.0392891193912" y="310" width="12.340710880608798" height="19.99999999999987" as="geometry" />
        </mxCell>
        <mxCell id="2izNmpZ97XsuF3mflQXR-284" value="" style="strokeColor=#DEEDFF;container=0;" vertex="1" parent="1">
          <mxGeometry x="1192.0576766722663" y="329.9999999999997" width="12.340710880608798" height="379.9999999999975" as="geometry" />
        </mxCell>
        <mxCell id="2izNmpZ97XsuF3mflQXR-283" value="" style="strokeColor=#DEEDFF;container=0;" vertex="1" parent="1">
          <mxGeometry x="1179.7169657916577" y="329.9999999999997" width="12.340710880608798" height="379.9999999999975" as="geometry" />
        </mxCell>
        <mxCell id="2izNmpZ97XsuF3mflQXR-282" value="" style="strokeColor=#DEEDFF;container=0;" vertex="1" parent="1">
          <mxGeometry x="1167.3762549110488" y="329.9999999999997" width="12.340710880608798" height="379.9999999999975" as="geometry" />
        </mxCell>
        <mxCell id="2izNmpZ97XsuF3mflQXR-281" value="" style="strokeColor=#DEEDFF;container=0;" vertex="1" parent="1">
          <mxGeometry x="1155.0355440304402" y="329.9999999999997" width="12.340710880608798" height="379.9999999999975" as="geometry" />
        </mxCell>
        <mxCell id="2izNmpZ97XsuF3mflQXR-280" value="" style="strokeColor=#DEEDFF;container=0;" vertex="1" parent="1">
          <mxGeometry x="1142.694833149831" y="329.9999999999997" width="12.340710880608798" height="379.9999999999975" as="geometry" />
        </mxCell>
        <mxCell id="2izNmpZ97XsuF3mflQXR-278" value="" style="strokeColor=#DEEDFF;container=0;" vertex="1" parent="1">
          <mxGeometry x="587.3628435224351" y="329.9999999999997" width="12.340710880608798" height="379.9999999999975" as="geometry" />
        </mxCell>
        <mxCell id="68" value="" style="strokeColor=#DEEDFF;container=0;" parent="1" vertex="1">
          <mxGeometry x="538" y="329.9999999999997" width="14.500335284715339" height="379.9999999999975" as="geometry" />
        </mxCell>
        <mxCell id="194" value="" style="strokeColor=#DEEDFF;container=0;" parent="1" vertex="1">
          <mxGeometry x="550.3407108806088" y="329.9999999999997" width="12.340710880608798" height="379.9999999999975" as="geometry" />
        </mxCell>
        <mxCell id="195" value="" style="strokeColor=#DEEDFF;container=0;" parent="1" vertex="1">
          <mxGeometry x="562.6814217612176" y="329.9999999999997" width="12.340710880608798" height="379.9999999999975" as="geometry" />
        </mxCell>
        <mxCell id="196" value="" style="strokeColor=#DEEDFF;container=0;" parent="1" vertex="1">
          <mxGeometry x="575.0221326418264" y="329.9999999999997" width="12.340710880608798" height="379.9999999999975" as="geometry" />
        </mxCell>
        <mxCell id="197" value="" style="strokeColor=#DEEDFF;container=0;" parent="1" vertex="1">
          <mxGeometry x="774.6331311356737" y="329.9999999999997" width="12.340710880608798" height="379.9999999999975" as="geometry" />
        </mxCell>
        <mxCell id="198" value="" style="strokeColor=#DEEDFF;fillColor=#D4E1FF;container=0;" parent="1" vertex="1">
          <mxGeometry x="599.703554403044" y="329.9999999999997" width="12.340710880608798" height="379.9999999999975" as="geometry" />
        </mxCell>
        <mxCell id="199" value="" style="strokeColor=#DEEDFF;fillColor=#D4E1FF;container=0;" parent="1" vertex="1">
          <mxGeometry x="612.0442652836527" y="329.9999999999997" width="12.340710880608798" height="379.9999999999975" as="geometry" />
        </mxCell>
        <mxCell id="200" value="" style="strokeColor=#DEEDFF;container=0;" parent="1" vertex="1">
          <mxGeometry x="624.3849761642616" y="329.9999999999997" width="12.340710880608798" height="379.9999999999975" as="geometry" />
        </mxCell>
        <mxCell id="201" value="" style="strokeColor=#DEEDFF;container=0;" parent="1" vertex="1">
          <mxGeometry x="636.7256870448704" y="329.9999999999997" width="12.340710880608798" height="379.9999999999975" as="geometry" />
        </mxCell>
        <mxCell id="202" value="" style="strokeColor=#DEEDFF;container=0;" parent="1" vertex="1">
          <mxGeometry x="649.0663979254791" y="329.9999999999997" width="12.340710880608798" height="379.9999999999975" as="geometry" />
        </mxCell>
        <mxCell id="203" value="" style="strokeColor=#DEEDFF;container=0;" parent="1" vertex="1">
          <mxGeometry x="661.407108806088" y="329.9999999999997" width="12.340710880608798" height="379.9999999999975" as="geometry" />
        </mxCell>
        <mxCell id="204" value="" style="strokeColor=#DEEDFF;container=0;" parent="1" vertex="1">
          <mxGeometry x="673.7478196866969" y="329.9999999999997" width="12.340710880608798" height="379.9999999999975" as="geometry" />
        </mxCell>
        <mxCell id="205" value="" style="strokeColor=#DEEDFF;fillColor=#D4E1FF;container=0;" parent="1" vertex="1">
          <mxGeometry x="686.0885305673056" y="329.9999999999997" width="12.340710880608798" height="379.9999999999975" as="geometry" />
        </mxCell>
        <mxCell id="206" value="" style="strokeColor=#DEEDFF;fillColor=#D4E1FF;container=0;" parent="1" vertex="1">
          <mxGeometry x="698.4292414479144" y="329.9999999999997" width="12.340710880608798" height="379.9999999999975" as="geometry" />
        </mxCell>
        <mxCell id="207" value="" style="strokeColor=#DEEDFF;container=0;" parent="1" vertex="1">
          <mxGeometry x="710.7699523285232" y="329.9999999999997" width="12.340710880608798" height="379.9999999999975" as="geometry" />
        </mxCell>
        <mxCell id="208" value="" style="strokeColor=#DEEDFF;container=0;" parent="1" vertex="1">
          <mxGeometry x="723.110663209132" y="329.9999999999997" width="12.340710880608798" height="379.9999999999975" as="geometry" />
        </mxCell>
        <mxCell id="209" value="" style="strokeColor=#DEEDFF;container=0;" parent="1" vertex="1">
          <mxGeometry x="735.4513740897407" y="329.9999999999997" width="12.340710880608798" height="379.9999999999975" as="geometry" />
        </mxCell>
        <mxCell id="210" value="" style="strokeColor=#DEEDFF;container=0;" parent="1" vertex="1">
          <mxGeometry x="747.7920849703496" y="329.9999999999997" width="12.340710880608798" height="379.9999999999975" as="geometry" />
        </mxCell>
        <mxCell id="211" value="" style="strokeColor=#DEEDFF;container=0;" parent="1" vertex="1">
          <mxGeometry x="760.1327958509584" y="329.9999999999997" width="12.340710880608798" height="379.9999999999975" as="geometry" />
        </mxCell>
        <mxCell id="212" value="" style="strokeColor=#DEEDFF;fillColor=#D4E1FF;container=0;" parent="1" vertex="1">
          <mxGeometry x="772.4735067315672" y="329.9999999999997" width="12.340710880608798" height="379.9999999999975" as="geometry" />
        </mxCell>
        <mxCell id="213" value="" style="strokeColor=#DEEDFF;fillColor=#D4E1FF;container=0;" parent="1" vertex="1">
          <mxGeometry x="784.8142176121761" y="329.9999999999997" width="12.340710880608798" height="379.9999999999975" as="geometry" />
        </mxCell>
        <mxCell id="214" value="" style="strokeColor=#DEEDFF;container=0;" parent="1" vertex="1">
          <mxGeometry x="797.1549284927848" y="329.9999999999997" width="12.340710880608798" height="379.9999999999975" as="geometry" />
        </mxCell>
        <mxCell id="215" value="" style="strokeColor=#DEEDFF;container=0;" parent="1" vertex="1">
          <mxGeometry x="809.4956393733937" y="329.9999999999997" width="12.340710880608798" height="379.9999999999975" as="geometry" />
        </mxCell>
        <mxCell id="216" value="" style="strokeColor=#DEEDFF;container=0;" parent="1" vertex="1">
          <mxGeometry x="821.8363502540025" y="329.9999999999997" width="12.340710880608798" height="379.9999999999975" as="geometry" />
        </mxCell>
        <mxCell id="217" value="" style="strokeColor=#DEEDFF;container=0;" parent="1" vertex="1">
          <mxGeometry x="834.1770611346112" y="329.9999999999997" width="12.340710880608798" height="379.9999999999975" as="geometry" />
        </mxCell>
        <mxCell id="218" value="" style="strokeColor=#DEEDFF;container=0;" parent="1" vertex="1">
          <mxGeometry x="846.5177720152201" y="329.9999999999997" width="12.340710880608798" height="379.9999999999975" as="geometry" />
        </mxCell>
        <mxCell id="219" value="" style="strokeColor=#DEEDFF;fillColor=#D4E1FF;container=0;" parent="1" vertex="1">
          <mxGeometry x="858.8584828958288" y="329.9999999999997" width="12.340710880608798" height="379.9999999999975" as="geometry" />
        </mxCell>
        <mxCell id="220" value="" style="strokeColor=#DEEDFF;fillColor=#D4E1FF;container=0;" parent="1" vertex="1">
          <mxGeometry x="871.1991937764376" y="329.9999999999997" width="12.340710880608798" height="379.9999999999975" as="geometry" />
        </mxCell>
        <mxCell id="221" value="" style="strokeColor=#DEEDFF;container=0;" parent="1" vertex="1">
          <mxGeometry x="883.5399046570465" y="329.9999999999997" width="12.340710880608798" height="379.9999999999975" as="geometry" />
        </mxCell>
        <mxCell id="222" value="" style="strokeColor=#DEEDFF;container=0;" parent="1" vertex="1">
          <mxGeometry x="895.8806155376552" y="329.9999999999997" width="12.340710880608798" height="379.9999999999975" as="geometry" />
        </mxCell>
        <mxCell id="223" value="" style="strokeColor=#DEEDFF;container=0;" parent="1" vertex="1">
          <mxGeometry x="908.221326418264" y="329.9999999999997" width="12.340710880608798" height="379.9999999999975" as="geometry" />
        </mxCell>
        <mxCell id="224" value="" style="strokeColor=#DEEDFF;container=0;" parent="1" vertex="1">
          <mxGeometry x="920.5620372988728" y="329.9999999999997" width="12.340710880608798" height="379.9999999999975" as="geometry" />
        </mxCell>
        <mxCell id="225" value="" style="strokeColor=#DEEDFF;container=0;" parent="1" vertex="1">
          <mxGeometry x="932.9027481794815" y="329.9999999999997" width="12.340710880608798" height="379.9999999999975" as="geometry" />
        </mxCell>
        <mxCell id="226" value="" style="strokeColor=#DEEDFF;fillColor=#D4E1FF;container=0;" parent="1" vertex="1">
          <mxGeometry x="945.2434590600903" y="329.9999999999997" width="12.340710880608798" height="379.9999999999975" as="geometry" />
        </mxCell>
        <mxCell id="227" value="" style="strokeColor=#DEEDFF;fillColor=#D4E1FF;container=0;" parent="1" vertex="1">
          <mxGeometry x="957.5841699406992" y="329.9999999999997" width="12.340710880608798" height="379.9999999999975" as="geometry" />
        </mxCell>
        <mxCell id="228" value="" style="strokeColor=#DEEDFF;container=0;" parent="1" vertex="1">
          <mxGeometry x="969.9248808213081" y="329.9999999999997" width="12.340710880608798" height="379.9999999999975" as="geometry" />
        </mxCell>
        <mxCell id="229" value="" style="strokeColor=#DEEDFF;container=0;" parent="1" vertex="1">
          <mxGeometry x="982.2655917019167" y="329.9999999999997" width="12.340710880608798" height="379.9999999999975" as="geometry" />
        </mxCell>
        <mxCell id="230" value="" style="strokeColor=#DEEDFF;container=0;" parent="1" vertex="1">
          <mxGeometry x="994.6063025825256" y="329.9999999999997" width="12.340710880608798" height="379.9999999999975" as="geometry" />
        </mxCell>
        <mxCell id="231" value="" style="strokeColor=#DEEDFF;container=0;" parent="1" vertex="1">
          <mxGeometry x="1006.9470134631345" y="329.9999999999997" width="12.340710880608798" height="379.9999999999975" as="geometry" />
        </mxCell>
        <mxCell id="232" value="" style="strokeColor=#DEEDFF;container=0;" parent="1" vertex="1">
          <mxGeometry x="1019.2877243437433" y="329.9999999999997" width="12.340710880608798" height="379.9999999999975" as="geometry" />
        </mxCell>
        <mxCell id="233" value="" style="strokeColor=#DEEDFF;fillColor=#D4E1FF;container=0;" parent="1" vertex="1">
          <mxGeometry x="1031.6284352243522" y="329.9999999999997" width="12.340710880608798" height="379.9999999999975" as="geometry" />
        </mxCell>
        <mxCell id="234" value="" style="strokeColor=#DEEDFF;fillColor=#D4E1FF;container=0;" parent="1" vertex="1">
          <mxGeometry x="1043.9691461049608" y="329.9999999999997" width="12.340710880608798" height="379.9999999999975" as="geometry" />
        </mxCell>
        <mxCell id="235" value="" style="strokeColor=#DEEDFF;container=0;" parent="1" vertex="1">
          <mxGeometry x="1056.3098569855697" y="329.9999999999997" width="12.340710880608798" height="379.9999999999975" as="geometry" />
        </mxCell>
        <mxCell id="236" value="" style="strokeColor=#DEEDFF;container=0;" parent="1" vertex="1">
          <mxGeometry x="1068.6505678661783" y="329.9999999999997" width="12.340710880608798" height="379.9999999999975" as="geometry" />
        </mxCell>
        <mxCell id="237" value="" style="strokeColor=#DEEDFF;container=0;" parent="1" vertex="1">
          <mxGeometry x="1080.9912787467874" y="329.9999999999997" width="12.340710880608798" height="379.9999999999975" as="geometry" />
        </mxCell>
        <mxCell id="238" value="" style="strokeColor=#DEEDFF;container=0;" parent="1" vertex="1">
          <mxGeometry x="1093.331989627396" y="329.9999999999997" width="12.340710880608798" height="379.9999999999975" as="geometry" />
        </mxCell>
        <mxCell id="239" value="" style="strokeColor=#DEEDFF;container=0;" parent="1" vertex="1">
          <mxGeometry x="1105.672700508005" y="329.9999999999997" width="12.340710880608798" height="379.9999999999975" as="geometry" />
        </mxCell>
        <mxCell id="240" value="" style="strokeColor=#DEEDFF;fillColor=#D4E1FF;container=0;" parent="1" vertex="1">
          <mxGeometry x="1118.0134113886136" y="329.9999999999997" width="12.340710880608798" height="379.9999999999975" as="geometry" />
        </mxCell>
        <mxCell id="241" value="" style="strokeColor=#DEEDFF;fillColor=#D4E1FF;container=0;" parent="1" vertex="1">
          <mxGeometry x="1130.3541222692224" y="329.9999999999997" width="12.340710880608798" height="379.9999999999975" as="geometry" />
        </mxCell>
        <mxCell id="4" value="18 Oct 23" style="fillColor=#23445D;strokeColor=#FFFFFF;strokeWidth=2;fontColor=#FFFFFF;fontStyle=1;container=0;" parent="1" vertex="1">
          <mxGeometry x="538.0000000000011" y="290.0000000000001" width="86.38497616426162" height="19.99999999999987" as="geometry" />
        </mxCell>
        <mxCell id="5" value="L" style="fillColor=#23445D;strokeColor=#FFFFFF;strokeWidth=2;fontColor=#FFFFFF;fontStyle=1;container=0;" parent="1" vertex="1">
          <mxGeometry x="538.0000000000011" y="310" width="12.340710880608798" height="19.99999999999987" as="geometry" />
        </mxCell>
        <mxCell id="6" value="M" style="fillColor=#23445D;strokeColor=#FFFFFF;strokeWidth=2;fontColor=#FFFFFF;fontStyle=1;container=0;" parent="1" vertex="1">
          <mxGeometry x="550.3407108806099" y="310" width="12.340710880608798" height="19.99999999999987" as="geometry" />
        </mxCell>
        <mxCell id="7" value="M" style="fillColor=#23445D;strokeColor=#FFFFFF;strokeWidth=2;fontColor=#FFFFFF;fontStyle=1;container=0;" parent="1" vertex="1">
          <mxGeometry x="562.6814217612188" y="310" width="12.340710880608798" height="19.99999999999987" as="geometry" />
        </mxCell>
        <mxCell id="8" value="J" style="fillColor=#23445D;strokeColor=#FFFFFF;strokeWidth=2;fontColor=#FFFFFF;fontStyle=1;container=0;" parent="1" vertex="1">
          <mxGeometry x="575.0221326418275" y="310" width="12.340710880608798" height="19.99999999999987" as="geometry" />
        </mxCell>
        <mxCell id="9" value="V" style="fillColor=#23445D;strokeColor=#FFFFFF;strokeWidth=2;fontColor=#FFFFFF;fontStyle=1;container=0;" parent="1" vertex="1">
          <mxGeometry x="587.3628435224362" y="310" width="12.340710880608798" height="19.99999999999987" as="geometry" />
        </mxCell>
        <mxCell id="10" value="S" style="fillColor=#23445D;strokeColor=#FFFFFF;strokeWidth=2;fontColor=#FFFFFF;fontStyle=1;container=0;" parent="1" vertex="1">
          <mxGeometry x="599.703554403045" y="310" width="12.340710880608798" height="19.99999999999987" as="geometry" />
        </mxCell>
        <mxCell id="11" value="D" style="fillColor=#23445D;strokeColor=#FFFFFF;strokeWidth=2;fontColor=#FFFFFF;fontStyle=1;container=0;" parent="1" vertex="1">
          <mxGeometry x="612.0442652836538" y="310" width="12.340710880608798" height="19.99999999999987" as="geometry" />
        </mxCell>
        <mxCell id="15" value="27 Oct 23" style="fillColor=#23445D;strokeColor=#FFFFFF;strokeWidth=2;fontColor=#FFFFFF;fontStyle=1;container=0;" parent="1" vertex="1">
          <mxGeometry x="624.3849761642628" y="290.0000000000001" width="86.38497616426162" height="19.99999999999987" as="geometry" />
        </mxCell>
        <mxCell id="16" value="L" style="fillColor=#23445D;strokeColor=#FFFFFF;strokeWidth=2;fontColor=#FFFFFF;fontStyle=1;container=0;" parent="1" vertex="1">
          <mxGeometry x="624.3849761642628" y="310" width="12.340710880608798" height="19.99999999999987" as="geometry" />
        </mxCell>
        <mxCell id="17" value="M" style="fillColor=#23445D;strokeColor=#FFFFFF;strokeWidth=2;fontColor=#FFFFFF;fontStyle=1;container=0;" parent="1" vertex="1">
          <mxGeometry x="636.7256870448715" y="310" width="12.340710880608798" height="19.99999999999987" as="geometry" />
        </mxCell>
        <mxCell id="18" value="M" style="fillColor=#23445D;strokeColor=#FFFFFF;strokeWidth=2;fontColor=#FFFFFF;fontStyle=1;container=0;" parent="1" vertex="1">
          <mxGeometry x="649.0663979254803" y="310" width="12.340710880608798" height="19.99999999999987" as="geometry" />
        </mxCell>
        <mxCell id="19" value="J" style="fillColor=#23445D;strokeColor=#FFFFFF;strokeWidth=2;fontColor=#FFFFFF;fontStyle=1;container=0;" parent="1" vertex="1">
          <mxGeometry x="661.4071088060891" y="310" width="12.340710880608798" height="19.99999999999987" as="geometry" />
        </mxCell>
        <mxCell id="20" value="V" style="fillColor=#23445D;strokeColor=#FFFFFF;strokeWidth=2;fontColor=#FFFFFF;fontStyle=1;container=0;" parent="1" vertex="1">
          <mxGeometry x="673.7478196866978" y="310" width="12.340710880608798" height="19.99999999999987" as="geometry" />
        </mxCell>
        <mxCell id="21" value="S" style="fillColor=#23445D;strokeColor=#FFFFFF;strokeWidth=2;fontColor=#FFFFFF;fontStyle=1;container=0;" parent="1" vertex="1">
          <mxGeometry x="686.0885305673066" y="310" width="12.340710880608798" height="19.99999999999987" as="geometry" />
        </mxCell>
        <mxCell id="22" value="D" style="fillColor=#23445D;strokeColor=#FFFFFF;strokeWidth=2;fontColor=#FFFFFF;fontStyle=1;container=0;" parent="1" vertex="1">
          <mxGeometry x="698.4292414479154" y="310" width="12.340710880608798" height="19.99999999999987" as="geometry" />
        </mxCell>
        <mxCell id="23" value="30 Oct 23" style="fillColor=#23445D;strokeColor=#FFFFFF;strokeWidth=2;fontColor=#FFFFFF;fontStyle=1;container=0;" parent="1" vertex="1">
          <mxGeometry x="710.7699523285244" y="290.00000000000006" width="86.38497616426162" height="19.99999999999987" as="geometry" />
        </mxCell>
        <mxCell id="24" value="L" style="fillColor=#23445D;strokeColor=#FFFFFF;strokeWidth=2;fontColor=#FFFFFF;fontStyle=1;container=0;" parent="1" vertex="1">
          <mxGeometry x="710.7699523285244" y="309.99999999999994" width="12.340710880608798" height="19.99999999999987" as="geometry" />
        </mxCell>
        <mxCell id="25" value="M" style="fillColor=#23445D;strokeColor=#FFFFFF;strokeWidth=2;fontColor=#FFFFFF;fontStyle=1;container=0;" parent="1" vertex="1">
          <mxGeometry x="723.1106632091332" y="309.99999999999994" width="12.340710880608798" height="19.99999999999987" as="geometry" />
        </mxCell>
        <mxCell id="26" value="M" style="fillColor=#23445D;strokeColor=#FFFFFF;strokeWidth=2;fontColor=#FFFFFF;fontStyle=1;container=0;" parent="1" vertex="1">
          <mxGeometry x="735.451374089742" y="309.99999999999994" width="12.340710880608798" height="19.99999999999987" as="geometry" />
        </mxCell>
        <mxCell id="27" value="J" style="fillColor=#23445D;strokeColor=#FFFFFF;strokeWidth=2;fontColor=#FFFFFF;fontStyle=1;container=0;" parent="1" vertex="1">
          <mxGeometry x="747.7920849703507" y="309.99999999999994" width="12.340710880608798" height="19.99999999999987" as="geometry" />
        </mxCell>
        <mxCell id="28" value="V" style="fillColor=#23445D;strokeColor=#FFFFFF;strokeWidth=2;fontColor=#FFFFFF;fontStyle=1;container=0;" parent="1" vertex="1">
          <mxGeometry x="760.1327958509594" y="309.99999999999994" width="12.340710880608798" height="19.99999999999987" as="geometry" />
        </mxCell>
        <mxCell id="29" value="S" style="fillColor=#23445D;strokeColor=#FFFFFF;strokeWidth=2;fontColor=#FFFFFF;fontStyle=1;container=0;" parent="1" vertex="1">
          <mxGeometry x="772.4735067315681" y="309.99999999999994" width="12.340710880608798" height="19.99999999999987" as="geometry" />
        </mxCell>
        <mxCell id="30" value="D" style="fillColor=#23445D;strokeColor=#FFFFFF;strokeWidth=2;fontColor=#FFFFFF;fontStyle=1;container=0;" parent="1" vertex="1">
          <mxGeometry x="784.814217612177" y="309.99999999999994" width="12.340710880608798" height="19.99999999999987" as="geometry" />
        </mxCell>
        <mxCell id="31" value="11 Nov 23" style="fillColor=#23445D;strokeColor=#FFFFFF;strokeWidth=2;fontColor=#FFFFFF;fontStyle=1;container=0;" parent="1" vertex="1">
          <mxGeometry x="797.154928492786" y="290.00000000000006" width="86.38497616426162" height="19.99999999999987" as="geometry" />
        </mxCell>
        <mxCell id="32" value="L" style="fillColor=#23445D;strokeColor=#FFFFFF;strokeWidth=2;fontColor=#FFFFFF;fontStyle=1;container=0;" parent="1" vertex="1">
          <mxGeometry x="797.154928492786" y="309.99999999999994" width="12.340710880608798" height="19.99999999999987" as="geometry" />
        </mxCell>
        <mxCell id="33" value="M" style="fillColor=#23445D;strokeColor=#FFFFFF;strokeWidth=2;fontColor=#FFFFFF;fontStyle=1;container=0;" parent="1" vertex="1">
          <mxGeometry x="809.4956393733947" y="309.99999999999994" width="12.340710880608798" height="19.99999999999987" as="geometry" />
        </mxCell>
        <mxCell id="34" value="M" style="fillColor=#23445D;strokeColor=#FFFFFF;strokeWidth=2;fontColor=#FFFFFF;fontStyle=1;container=0;" parent="1" vertex="1">
          <mxGeometry x="821.8363502540035" y="309.99999999999994" width="12.340710880608798" height="19.99999999999987" as="geometry" />
        </mxCell>
        <mxCell id="35" value="J" style="fillColor=#23445D;strokeColor=#FFFFFF;strokeWidth=2;fontColor=#FFFFFF;fontStyle=1;container=0;" parent="1" vertex="1">
          <mxGeometry x="834.1770611346124" y="309.99999999999994" width="12.340710880608798" height="19.99999999999987" as="geometry" />
        </mxCell>
        <mxCell id="36" value="V" style="fillColor=#23445D;strokeColor=#FFFFFF;strokeWidth=2;fontColor=#FFFFFF;fontStyle=1;container=0;" parent="1" vertex="1">
          <mxGeometry x="846.517772015221" y="309.9999999999999" width="12.340710880608798" height="19.99999999999987" as="geometry" />
        </mxCell>
        <mxCell id="37" value="S" style="fillColor=#23445D;strokeColor=#FFFFFF;strokeWidth=2;fontColor=#FFFFFF;fontStyle=1;container=0;" parent="1" vertex="1">
          <mxGeometry x="858.8584828958298" y="309.9999999999999" width="12.340710880608798" height="19.99999999999987" as="geometry" />
        </mxCell>
        <mxCell id="38" value="D" style="fillColor=#23445D;strokeColor=#FFFFFF;strokeWidth=2;fontColor=#FFFFFF;fontStyle=1;container=0;" parent="1" vertex="1">
          <mxGeometry x="871.1991937764385" y="309.9999999999999" width="12.340710880608798" height="19.99999999999987" as="geometry" />
        </mxCell>
        <mxCell id="39" value="18 Nov 23" style="fillColor=#23445D;strokeColor=#FFFFFF;strokeWidth=2;fontColor=#FFFFFF;fontStyle=1;container=0;" parent="1" vertex="1">
          <mxGeometry x="883.5399046570475" y="290.00000000000006" width="86.38497616426162" height="19.99999999999987" as="geometry" />
        </mxCell>
        <mxCell id="40" value="L" style="fillColor=#23445D;strokeColor=#FFFFFF;strokeWidth=2;fontColor=#FFFFFF;fontStyle=1;container=0;" parent="1" vertex="1">
          <mxGeometry x="883.5399046570475" y="309.99999999999994" width="12.340710880608798" height="19.99999999999987" as="geometry" />
        </mxCell>
        <mxCell id="41" value="M" style="fillColor=#23445D;strokeColor=#FFFFFF;strokeWidth=2;fontColor=#FFFFFF;fontStyle=1;container=0;" parent="1" vertex="1">
          <mxGeometry x="895.8806155376562" y="309.99999999999994" width="12.340710880608798" height="19.99999999999987" as="geometry" />
        </mxCell>
        <mxCell id="42" value="M" style="fillColor=#23445D;strokeColor=#FFFFFF;strokeWidth=2;fontColor=#FFFFFF;fontStyle=1;container=0;" parent="1" vertex="1">
          <mxGeometry x="908.2213264182651" y="309.99999999999994" width="12.340710880608798" height="19.99999999999987" as="geometry" />
        </mxCell>
        <mxCell id="43" value="J" style="fillColor=#23445D;strokeColor=#FFFFFF;strokeWidth=2;fontColor=#FFFFFF;fontStyle=1;container=0;" parent="1" vertex="1">
          <mxGeometry x="920.5620372988739" y="309.99999999999994" width="12.340710880608798" height="19.99999999999987" as="geometry" />
        </mxCell>
        <mxCell id="44" value="V" style="fillColor=#23445D;strokeColor=#FFFFFF;strokeWidth=2;fontColor=#FFFFFF;fontStyle=1;container=0;" parent="1" vertex="1">
          <mxGeometry x="932.9027481794825" y="309.9999999999999" width="12.340710880608798" height="19.99999999999987" as="geometry" />
        </mxCell>
        <mxCell id="45" value="S" style="fillColor=#23445D;strokeColor=#FFFFFF;strokeWidth=2;fontColor=#FFFFFF;fontStyle=1;container=0;" parent="1" vertex="1">
          <mxGeometry x="945.2434590600915" y="309.9999999999999" width="12.340710880608798" height="19.99999999999987" as="geometry" />
        </mxCell>
        <mxCell id="46" value="D" style="fillColor=#23445D;strokeColor=#FFFFFF;strokeWidth=2;fontColor=#FFFFFF;fontStyle=1;container=0;" parent="1" vertex="1">
          <mxGeometry x="957.5841699407001" y="309.9999999999999" width="12.340710880608798" height="19.99999999999987" as="geometry" />
        </mxCell>
        <mxCell id="47" value="25 Nov 23" style="fillColor=#23445D;strokeColor=#FFFFFF;strokeWidth=2;fontColor=#FFFFFF;fontStyle=1;container=0;" parent="1" vertex="1">
          <mxGeometry x="969.924880821309" y="290" width="86.38497616426162" height="19.99999999999987" as="geometry" />
        </mxCell>
        <mxCell id="48" value="L" style="fillColor=#23445D;strokeColor=#FFFFFF;strokeWidth=2;fontColor=#FFFFFF;fontStyle=1;container=0;" parent="1" vertex="1">
          <mxGeometry x="969.924880821309" y="309.9999999999999" width="12.340710880608798" height="19.99999999999987" as="geometry" />
        </mxCell>
        <mxCell id="49" value="M" style="fillColor=#23445D;strokeColor=#FFFFFF;strokeWidth=2;fontColor=#FFFFFF;fontStyle=1;container=0;" parent="1" vertex="1">
          <mxGeometry x="982.2655917019181" y="309.9999999999999" width="12.340710880608798" height="19.99999999999987" as="geometry" />
        </mxCell>
        <mxCell id="50" value="M" style="fillColor=#23445D;strokeColor=#FFFFFF;strokeWidth=2;fontColor=#FFFFFF;fontStyle=1;container=0;" parent="1" vertex="1">
          <mxGeometry x="994.6063025825267" y="309.9999999999999" width="12.340710880608798" height="19.99999999999987" as="geometry" />
        </mxCell>
        <mxCell id="51" value="J" style="fillColor=#23445D;strokeColor=#FFFFFF;strokeWidth=2;fontColor=#FFFFFF;fontStyle=1;container=0;" parent="1" vertex="1">
          <mxGeometry x="1006.9470134631356" y="309.9999999999999" width="12.340710880608798" height="19.99999999999987" as="geometry" />
        </mxCell>
        <mxCell id="52" value="V" style="fillColor=#23445D;strokeColor=#FFFFFF;strokeWidth=2;fontColor=#FFFFFF;fontStyle=1;container=0;" parent="1" vertex="1">
          <mxGeometry x="1019.2877243437442" y="309.9999999999999" width="12.340710880608798" height="19.99999999999987" as="geometry" />
        </mxCell>
        <mxCell id="53" value="S" style="fillColor=#23445D;strokeColor=#FFFFFF;strokeWidth=2;fontColor=#FFFFFF;fontStyle=1;container=0;" parent="1" vertex="1">
          <mxGeometry x="1031.6284352243529" y="309.9999999999999" width="12.340710880608798" height="19.99999999999987" as="geometry" />
        </mxCell>
        <mxCell id="54" value="D" style="fillColor=#23445D;strokeColor=#FFFFFF;strokeWidth=2;fontColor=#FFFFFF;fontStyle=1;container=0;" parent="1" vertex="1">
          <mxGeometry x="1043.969146104962" y="309.9999999999999" width="12.340710880608798" height="19.99999999999987" as="geometry" />
        </mxCell>
        <mxCell id="55" value="02 Dic 23" style="fillColor=#23445D;strokeColor=#FFFFFF;strokeWidth=2;fontColor=#FFFFFF;fontStyle=1;container=0;" parent="1" vertex="1">
          <mxGeometry x="1056.3098569855708" y="290.0000000000001" width="86.38497616426162" height="19.99999999999987" as="geometry" />
        </mxCell>
        <mxCell id="56" value="L" style="fillColor=#23445D;strokeColor=#FFFFFF;strokeWidth=2;fontColor=#FFFFFF;fontStyle=1;container=0;" parent="1" vertex="1">
          <mxGeometry x="1056.3098569855708" y="310" width="12.340710880608798" height="19.99999999999987" as="geometry" />
        </mxCell>
        <mxCell id="57" value="M" style="fillColor=#23445D;strokeColor=#FFFFFF;strokeWidth=2;fontColor=#FFFFFF;fontStyle=1;container=0;" parent="1" vertex="1">
          <mxGeometry x="1068.6505678661795" y="310" width="12.340710880608798" height="19.99999999999987" as="geometry" />
        </mxCell>
        <mxCell id="58" value="M" style="fillColor=#23445D;strokeColor=#FFFFFF;strokeWidth=2;fontColor=#FFFFFF;fontStyle=1;container=0;" parent="1" vertex="1">
          <mxGeometry x="1080.9912787467883" y="310" width="12.340710880608798" height="19.99999999999987" as="geometry" />
        </mxCell>
        <mxCell id="59" value="J" style="fillColor=#23445D;strokeColor=#FFFFFF;strokeWidth=2;fontColor=#FFFFFF;fontStyle=1;container=0;" parent="1" vertex="1">
          <mxGeometry x="1093.3319896273972" y="310" width="12.340710880608798" height="19.99999999999987" as="geometry" />
        </mxCell>
        <mxCell id="60" value="V" style="fillColor=#23445D;strokeColor=#FFFFFF;strokeWidth=2;fontColor=#FFFFFF;fontStyle=1;container=0;" parent="1" vertex="1">
          <mxGeometry x="1105.6727005080058" y="310" width="12.340710880608798" height="19.99999999999987" as="geometry" />
        </mxCell>
        <mxCell id="61" value="S" style="fillColor=#23445D;strokeColor=#FFFFFF;strokeWidth=2;fontColor=#FFFFFF;fontStyle=1;container=0;" parent="1" vertex="1">
          <mxGeometry x="1118.0134113886147" y="310" width="12.340710880608798" height="19.99999999999987" as="geometry" />
        </mxCell>
        <mxCell id="62" value="D" style="fillColor=#23445D;strokeColor=#FFFFFF;strokeWidth=2;fontColor=#FFFFFF;fontStyle=1;container=0;" parent="1" vertex="1">
          <mxGeometry x="1130.3541222692234" y="310" width="12.340710880608798" height="19.99999999999987" as="geometry" />
        </mxCell>
        <mxCell id="242" value="" style="shape=mxgraph.flowchart.process;fillColor=#AE4132;strokeColor=#000000;strokeWidth=2;opacity=50;container=0;" parent="1" vertex="1">
          <mxGeometry x="538" y="349.9999999999996" width="446.11669833400805" height="19.99999999999987" as="geometry" />
        </mxCell>
        <mxCell id="243" value="" style="shape=mxgraph.arrows.bent_right_arrow;fillColor=#AE4132;strokeColor=none;strokeWidth=2;direction=south;container=0;" parent="1" vertex="1">
          <mxGeometry x="601.8631788071518" y="379.9999999999991" width="6.1703554403046095" height="9.999999999999764" as="geometry" />
        </mxCell>
        <mxCell id="244" value="" style="shape=mxgraph.flowchart.process;fillColor=#AE4132;strokeColor=none;strokeWidth=2;opacity=50;container=0;" parent="1" vertex="1">
          <mxGeometry x="538" y="369.9999999999995" width="63.86317880715054" height="19.99999999999987" as="geometry" />
        </mxCell>
        <mxCell id="245" value="" style="shape=mxgraph.flowchart.process;fillColor=#AE4132;strokeColor=none;strokeWidth=2;opacity=50;container=0;" parent="1" vertex="1">
          <mxGeometry x="601.8631788071506" y="389.9999999999993" width="86.38497616426162" height="19.99999999999987" as="geometry" />
        </mxCell>
        <mxCell id="246" value="" style="shape=mxgraph.flowchart.process;fillColor=#AE4132;strokeColor=none;strokeWidth=2;opacity=50;container=0;" parent="1" vertex="1">
          <mxGeometry x="688.2481549714122" y="409.9999999999992" width="55.5331989627396" height="19.99999999999987" as="geometry" />
        </mxCell>
        <mxCell id="247" value="" style="shape=mxgraph.flowchart.process;fillColor=#e51400;strokeColor=#B20000;strokeWidth=2;opacity=50;fontColor=#ffffff;container=0;" parent="1" vertex="1">
          <mxGeometry x="836.34" y="450" width="174.66" height="20" as="geometry" />
        </mxCell>
        <mxCell id="250" value="" style="shape=mxgraph.arrows.bent_right_arrow;fillColor=#AE4132;strokeColor=none;strokeWidth=2;direction=south;container=0;" parent="1" vertex="1">
          <mxGeometry x="743.7813539341522" y="419.99999999999926" width="6.1703554403046095" height="9.999999999999764" as="geometry" />
        </mxCell>
        <mxCell id="252" value="" style="shape=mxgraph.flowchart.process;fillColor=#AE4132;strokeColor=none;strokeWidth=2;opacity=50;container=0;" parent="1" vertex="1">
          <mxGeometry x="743.7813539341516" y="429.9999999999991" width="92.55533160456599" height="19.99999999999987" as="geometry" />
        </mxCell>
        <mxCell id="253" value="" style="shape=mxgraph.arrows.bent_right_arrow;fillColor=#AE4132;strokeColor=none;strokeWidth=2;direction=south;container=0;" parent="1" vertex="1">
          <mxGeometry x="836.3366855387189" y="439.99999999999886" width="6.1703554403046095" height="9.999999999999764" as="geometry" />
        </mxCell>
        <mxCell id="255" value="" style="shape=mxgraph.flowchart.process;fillColor=#AE4132;strokeColor=none;strokeWidth=2;opacity=50;container=0;" parent="1" vertex="1">
          <mxGeometry x="1011" y="490" width="90" height="20" as="geometry" />
        </mxCell>
        <mxCell id="257" value="" style="shape=mxgraph.flowchart.process;fillColor=#AE4132;strokeColor=none;strokeWidth=2;opacity=50;container=0;" parent="1" vertex="1">
          <mxGeometry x="1101" y="510" width="90" height="20" as="geometry" />
        </mxCell>
        <mxCell id="260" value="" style="shape=mxgraph.flowchart.process;fillColor=#AE4132;strokeColor=none;strokeWidth=2;opacity=50;container=0;" parent="1" vertex="1">
          <mxGeometry x="1321.63" y="570" width="89.37" height="20" as="geometry" />
        </mxCell>
        <mxCell id="261" value="" style="shape=mxgraph.flowchart.process;fillColor=#AE4132;strokeColor=none;strokeWidth=2;opacity=50;container=0;" parent="1" vertex="1">
          <mxGeometry x="1411" y="590" width="50" height="20" as="geometry" />
        </mxCell>
        <mxCell id="268" value="" style="shape=mxgraph.flowchart.process;fillColor=#AE4132;strokeColor=#000000;strokeWidth=2;opacity=50;container=0;" parent="1" vertex="1">
          <mxGeometry x="1541" y="630" width="210" height="20" as="geometry" />
        </mxCell>
        <mxCell id="269" value="" style="shape=mxgraph.arrows.bent_right_arrow;fillColor=#AE4132;strokeColor=none;strokeWidth=2;direction=south;container=0;" parent="1" vertex="1">
          <mxGeometry x="1100.9959269866335" y="500.0000000000007" width="6.1703554403046095" height="9.999999999999764" as="geometry" />
        </mxCell>
        <mxCell id="270" value="" style="shape=mxgraph.arrows.bent_right_arrow;fillColor=#AE4132;strokeColor=none;strokeWidth=2;direction=south;container=0;" parent="1" vertex="1">
          <mxGeometry x="1190.999952328523" y="520.0000000000002" width="6.1703554403046095" height="9.999999999999764" as="geometry" />
        </mxCell>
        <mxCell id="272" value="" style="shape=mxgraph.arrows.bent_right_arrow;fillColor=#AE4132;strokeColor=none;strokeWidth=2;direction=south;container=0;" parent="1" vertex="1">
          <mxGeometry x="1411.002037298873" y="580.000000000035" width="6.1703554403046095" height="9.999999999999764" as="geometry" />
        </mxCell>
        <mxCell id="273" value="" style="shape=mxgraph.arrows.bent_right_arrow;fillColor=#AE4132;strokeColor=none;strokeWidth=2;direction=south;container=0;" parent="1" vertex="1">
          <mxGeometry x="1461.0048808213082" y="600.0000000000002" width="6.1703554403046095" height="9.999999999999764" as="geometry" />
        </mxCell>
        <mxCell id="2izNmpZ97XsuF3mflQXR-287" value="09 Dic 23" style="fillColor=#23445D;strokeColor=#FFFFFF;strokeWidth=2;fontColor=#FFFFFF;fontStyle=1;container=0;" vertex="1" parent="1">
          <mxGeometry x="1142.6948331498324" y="290.0000000000001" width="86.38497616426162" height="19.99999999999987" as="geometry" />
        </mxCell>
        <mxCell id="2izNmpZ97XsuF3mflQXR-288" value="L" style="fillColor=#23445D;strokeColor=#FFFFFF;strokeWidth=2;fontColor=#FFFFFF;fontStyle=1;container=0;" vertex="1" parent="1">
          <mxGeometry x="1142.6948331498324" y="310" width="12.340710880608798" height="19.99999999999987" as="geometry" />
        </mxCell>
        <mxCell id="2izNmpZ97XsuF3mflQXR-289" value="M" style="fillColor=#23445D;strokeColor=#FFFFFF;strokeWidth=2;fontColor=#FFFFFF;fontStyle=1;container=0;" vertex="1" parent="1">
          <mxGeometry x="1155.035544030441" y="310" width="12.340710880608798" height="19.99999999999987" as="geometry" />
        </mxCell>
        <mxCell id="2izNmpZ97XsuF3mflQXR-290" value="M" style="fillColor=#23445D;strokeColor=#FFFFFF;strokeWidth=2;fontColor=#FFFFFF;fontStyle=1;container=0;" vertex="1" parent="1">
          <mxGeometry x="1167.3762549110497" y="310" width="12.340710880608798" height="19.99999999999987" as="geometry" />
        </mxCell>
        <mxCell id="2izNmpZ97XsuF3mflQXR-291" value="J" style="fillColor=#23445D;strokeColor=#FFFFFF;strokeWidth=2;fontColor=#FFFFFF;fontStyle=1;container=0;" vertex="1" parent="1">
          <mxGeometry x="1179.7169657916588" y="310" width="12.340710880608798" height="19.99999999999987" as="geometry" />
        </mxCell>
        <mxCell id="2izNmpZ97XsuF3mflQXR-292" value="V" style="fillColor=#23445D;strokeColor=#FFFFFF;strokeWidth=2;fontColor=#FFFFFF;fontStyle=1;container=0;" vertex="1" parent="1">
          <mxGeometry x="1192.0576766722675" y="310" width="12.340710880608798" height="19.99999999999987" as="geometry" />
        </mxCell>
        <mxCell id="256" value="" style="shape=mxgraph.flowchart.process;fillColor=#AE4132;strokeColor=#000000;strokeWidth=2;opacity=50;container=0;" parent="1" vertex="1">
          <mxGeometry x="1011" y="470" width="310" height="20" as="geometry" />
        </mxCell>
        <mxCell id="254" value="" style="shape=mxgraph.flowchart.process;fillColor=#AE4132;strokeColor=#000000;strokeWidth=2;opacity=100;container=0;" parent="1" vertex="1">
          <mxGeometry x="538" y="330" width="1212" height="20" as="geometry" />
        </mxCell>
        <mxCell id="2izNmpZ97XsuF3mflQXR-448" value="" style="shape=mxgraph.flowchart.process;fillColor=#e51400;strokeColor=#B20000;strokeWidth=2;opacity=50;fontColor=#ffffff;container=0;" vertex="1" parent="1">
          <mxGeometry x="1191" y="530" width="130" height="20" as="geometry" />
        </mxCell>
        <mxCell id="2izNmpZ97XsuF3mflQXR-449" value="" style="shape=mxgraph.flowchart.process;fillColor=#AE4132;strokeColor=#000000;strokeWidth=2;opacity=50;container=0;" vertex="1" parent="1">
          <mxGeometry x="1321.64" y="550" width="219.36" height="20" as="geometry" />
        </mxCell>
        <mxCell id="2izNmpZ97XsuF3mflQXR-451" value="" style="shape=mxgraph.flowchart.process;fillColor=#e51400;strokeColor=#B20000;strokeWidth=2;opacity=50;fontColor=#ffffff;container=0;" vertex="1" parent="1">
          <mxGeometry x="1461" y="610" width="80" height="20" as="geometry" />
        </mxCell>
        <mxCell id="2izNmpZ97XsuF3mflQXR-467" value="" style="group" vertex="1" connectable="0" parent="1">
          <mxGeometry x="5" y="290" width="533" height="420" as="geometry" />
        </mxCell>
        <mxCell id="63" value="1" style="strokeColor=#DEEDFF;fillColor=#ADC3D9" parent="2izNmpZ97XsuF3mflQXR-467" vertex="1">
          <mxGeometry x="3.4084735034411803e-13" y="39.99999999999963" width="35.533333333333125" height="19.999999999999815" as="geometry" />
        </mxCell>
        <mxCell id="64" value="Tesis" style="align=left;strokeColor=#DEEDFF;fillColor=#ADC3D9" parent="2izNmpZ97XsuF3mflQXR-467" vertex="1">
          <mxGeometry x="35.533333333333466" y="39.99999999999963" width="284.266666666665" height="19.999999999999815" as="geometry" />
        </mxCell>
        <mxCell id="65" value="0" style="strokeColor=#DEEDFF;fillColor=#ADC3D9" parent="2izNmpZ97XsuF3mflQXR-467" vertex="1">
          <mxGeometry x="319.8" y="39.99999999999963" width="71.0666666666665" height="19.999999999999815" as="geometry" />
        </mxCell>
        <mxCell id="66" value="13.10.23" style="strokeColor=#DEEDFF;fillColor=#ADC3D9" parent="2izNmpZ97XsuF3mflQXR-467" vertex="1">
          <mxGeometry x="390.8666666666665" y="39.99999999999963" width="71.0666666666665" height="19.999999999999815" as="geometry" />
        </mxCell>
        <mxCell id="67" value="20.01.24" style="strokeColor=#DEEDFF;fillColor=#ADC3D9" parent="2izNmpZ97XsuF3mflQXR-467" vertex="1">
          <mxGeometry x="461.9333333333323" y="39.99999999999986" width="71.0666666666665" height="19.999999999999815" as="geometry" />
        </mxCell>
        <mxCell id="69" value="2" style="strokeColor=#DEEDFF;fillColor=#CCE5FF" parent="2izNmpZ97XsuF3mflQXR-467" vertex="1">
          <mxGeometry x="5.680789172401968e-13" y="59.99999999999933" width="35.533333333333125" height="19.999999999999815" as="geometry" />
        </mxCell>
        <mxCell id="70" value="Revisión de Literatura" style="align=left;strokeColor=#DEEDFF;fillColor=#CCE5FF" parent="2izNmpZ97XsuF3mflQXR-467" vertex="1">
          <mxGeometry x="35.533333333333694" y="59.99999999999933" width="284.2666666666648" height="19.999999999999815" as="geometry" />
        </mxCell>
        <mxCell id="71" value="35 días" style="strokeColor=#DEEDFF;fillColor=#CCE5FF" parent="2izNmpZ97XsuF3mflQXR-467" vertex="1">
          <mxGeometry x="319.80000000000024" y="59.999999999999275" width="71.0666666666665" height="19.999999999999815" as="geometry" />
        </mxCell>
        <mxCell id="72" value="13.10.23" style="strokeColor=#DEEDFF;fillColor=#CCE5FF" parent="2izNmpZ97XsuF3mflQXR-467" vertex="1">
          <mxGeometry x="390.86666666666673" y="59.999999999999275" width="71.0666666666665" height="19.999999999999815" as="geometry" />
        </mxCell>
        <mxCell id="73" value="21.11.23" style="strokeColor=#DEEDFF;fillColor=#CCE5FF" parent="2izNmpZ97XsuF3mflQXR-467" vertex="1">
          <mxGeometry x="461.93333333333254" y="59.99999999999956" width="71.0666666666665" height="19.999999999999815" as="geometry" />
        </mxCell>
        <mxCell id="74" value="3" style="strokeColor=#DEEDFF" parent="2izNmpZ97XsuF3mflQXR-467" vertex="1">
          <mxGeometry x="5.807028931788678e-13" y="79.99999999999903" width="35.533333333333125" height="19.999999999999815" as="geometry" />
        </mxCell>
        <mxCell id="75" value="Buscar información" style="align=left;strokeColor=#DEEDFF" parent="2izNmpZ97XsuF3mflQXR-467" vertex="1">
          <mxGeometry x="35.5333333333337" y="79.99999999999903" width="284.2666666666647" height="19.99999999999983" as="geometry" />
        </mxCell>
        <mxCell id="76" value="5 días" style="strokeColor=#DEEDFF" parent="2izNmpZ97XsuF3mflQXR-467" vertex="1">
          <mxGeometry x="319.80000000000024" y="79.99999999999898" width="71.0666666666665" height="19.999999999999815" as="geometry" />
        </mxCell>
        <mxCell id="77" value="13.10.23" style="strokeColor=#DEEDFF" parent="2izNmpZ97XsuF3mflQXR-467" vertex="1">
          <mxGeometry x="390.86666666666673" y="79.99999999999898" width="71.0666666666665" height="19.999999999999815" as="geometry" />
        </mxCell>
        <mxCell id="78" value="18.10.23" style="strokeColor=#DEEDFF" parent="2izNmpZ97XsuF3mflQXR-467" vertex="1">
          <mxGeometry x="461.93333333333254" y="79.99999999999926" width="71.0666666666665" height="19.999999999999815" as="geometry" />
        </mxCell>
        <mxCell id="79" value="4" style="strokeColor=#DEEDFF" parent="2izNmpZ97XsuF3mflQXR-467" vertex="1">
          <mxGeometry x="3.4084735034411803e-13" y="99.99999999999925" width="35.533333333333125" height="19.999999999999815" as="geometry" />
        </mxCell>
        <mxCell id="80" value="Introducción y justificación" style="align=left;strokeColor=#DEEDFF" parent="2izNmpZ97XsuF3mflQXR-467" vertex="1">
          <mxGeometry x="35.533333333333466" y="99.99999999999925" width="284.266666666665" height="19.999999999999815" as="geometry" />
        </mxCell>
        <mxCell id="81" value="7 días" style="strokeColor=#DEEDFF" parent="2izNmpZ97XsuF3mflQXR-467" vertex="1">
          <mxGeometry x="319.79999999999995" y="99.99999999999919" width="71.0666666666665" height="19.999999999999815" as="geometry" />
        </mxCell>
        <mxCell id="82" value="20.10.23" style="strokeColor=#DEEDFF" parent="2izNmpZ97XsuF3mflQXR-467" vertex="1">
          <mxGeometry x="390.8666666666665" y="99.99999999999919" width="71.0666666666665" height="19.999999999999815" as="geometry" />
        </mxCell>
        <mxCell id="83" value="27.10.23" style="strokeColor=#DEEDFF" parent="2izNmpZ97XsuF3mflQXR-467" vertex="1">
          <mxGeometry x="461.9333333333322" y="99.99999999999947" width="71.0666666666665" height="19.999999999999815" as="geometry" />
        </mxCell>
        <mxCell id="84" value="5" style="strokeColor=#DEEDFF" parent="2izNmpZ97XsuF3mflQXR-467" vertex="1">
          <mxGeometry x="2.6510349471209183e-13" y="119.99999999999906" width="35.533333333333125" height="19.999999999999815" as="geometry" />
        </mxCell>
        <mxCell id="85" value="Objetivos, hipótesis y metodología" style="align=left;strokeColor=#DEEDFF" parent="2izNmpZ97XsuF3mflQXR-467" vertex="1">
          <mxGeometry x="35.53333333333339" y="119.99999999999906" width="284.2666666666651" height="19.999999999999815" as="geometry" />
        </mxCell>
        <mxCell id="86" value="5 días" style="strokeColor=#DEEDFF" parent="2izNmpZ97XsuF3mflQXR-467" vertex="1">
          <mxGeometry x="319.79999999999995" y="119.999999999999" width="71.0666666666665" height="19.999999999999815" as="geometry" />
        </mxCell>
        <mxCell id="87" value="28.10.23" style="strokeColor=#DEEDFF" parent="2izNmpZ97XsuF3mflQXR-467" vertex="1">
          <mxGeometry x="390.86666666666645" y="119.999999999999" width="71.0666666666665" height="19.999999999999815" as="geometry" />
        </mxCell>
        <mxCell id="88" value="02.11.23" style="strokeColor=#DEEDFF" parent="2izNmpZ97XsuF3mflQXR-467" vertex="1">
          <mxGeometry x="461.9333333333322" y="119.99999999999929" width="71.0666666666665" height="19.999999999999815" as="geometry" />
        </mxCell>
        <mxCell id="89" value="6" style="strokeColor=#DEEDFF" parent="2izNmpZ97XsuF3mflQXR-467" vertex="1">
          <mxGeometry x="2.524795187734208e-13" y="139.99999999999918" width="35.533333333333125" height="19.999999999999815" as="geometry" />
        </mxCell>
        <mxCell id="90" value="Recursos y plan de trabajo" style="align=left;strokeColor=#DEEDFF" parent="2izNmpZ97XsuF3mflQXR-467" vertex="1">
          <mxGeometry x="35.533333333333374" y="139.99999999999918" width="284.2666666666651" height="19.999999999999815" as="geometry" />
        </mxCell>
        <mxCell id="91" value="6 días" style="strokeColor=#DEEDFF" parent="2izNmpZ97XsuF3mflQXR-467" vertex="1">
          <mxGeometry x="319.79999999999995" y="139.99999999999906" width="71.0666666666665" height="19.999999999999815" as="geometry" />
        </mxCell>
        <mxCell id="92" value="03.11.23" style="strokeColor=#DEEDFF" parent="2izNmpZ97XsuF3mflQXR-467" vertex="1">
          <mxGeometry x="390.86666666666645" y="139.99999999999906" width="71.0666666666665" height="19.999999999999815" as="geometry" />
        </mxCell>
        <mxCell id="93" value="09.11.23" style="strokeColor=#DEEDFF" parent="2izNmpZ97XsuF3mflQXR-467" vertex="1">
          <mxGeometry x="461.9333333333322" y="139.9999999999994" width="71.0666666666665" height="19.999999999999815" as="geometry" />
        </mxCell>
        <mxCell id="94" value="7" style="strokeColor=#DEEDFF" parent="2izNmpZ97XsuF3mflQXR-467" vertex="1">
          <mxGeometry x="8.963022916456438e-13" y="159.9999999999992" width="35.533333333333125" height="19.999999999999815" as="geometry" />
        </mxCell>
        <mxCell id="95" value="TRABAJO FINAL: protocolo completo" style="align=left;strokeColor=#DEEDFF" parent="2izNmpZ97XsuF3mflQXR-467" vertex="1">
          <mxGeometry x="35.53333333333402" y="159.9999999999992" width="284.26666666666443" height="19.999999999999815" as="geometry" />
        </mxCell>
        <mxCell id="96" value="12 días" style="strokeColor=#DEEDFF" parent="2izNmpZ97XsuF3mflQXR-467" vertex="1">
          <mxGeometry x="319.8000000000006" y="159.9999999999992" width="71.0666666666665" height="19.999999999999815" as="geometry" />
        </mxCell>
        <mxCell id="97" value="09.11.23" style="strokeColor=#DEEDFF" parent="2izNmpZ97XsuF3mflQXR-467" vertex="1">
          <mxGeometry x="390.86666666666713" y="159.9999999999992" width="71.0666666666665" height="19.999999999999815" as="geometry" />
        </mxCell>
        <mxCell id="98" value="21.11.23" style="strokeColor=#DEEDFF" parent="2izNmpZ97XsuF3mflQXR-467" vertex="1">
          <mxGeometry x="461.9333333333328" y="159.99999999999943" width="71.0666666666665" height="19.999999999999815" as="geometry" />
        </mxCell>
        <mxCell id="104" value="8" style="strokeColor=#DEEDFF;fillColor=#CCE5FF" parent="2izNmpZ97XsuF3mflQXR-467" vertex="1">
          <mxGeometry x="6.69070724749565e-13" y="179.99999999999937" width="35.533333333333125" height="19.999999999999815" as="geometry" />
        </mxCell>
        <mxCell id="105" value="Estudio de Casos" style="align=left;strokeColor=#DEEDFF;fillColor=#CCE5FF" parent="2izNmpZ97XsuF3mflQXR-467" vertex="1">
          <mxGeometry x="35.53333333333379" y="179.99999999999937" width="284.26666666666466" height="19.999999999999844" as="geometry" />
        </mxCell>
        <mxCell id="106" value="24 días" style="strokeColor=#DEEDFF;fillColor=#CCE5FF" parent="2izNmpZ97XsuF3mflQXR-467" vertex="1">
          <mxGeometry x="319.80000000000035" y="179.99999999999926" width="71.0666666666665" height="19.999999999999815" as="geometry" />
        </mxCell>
        <mxCell id="107" value="22.11.23" style="strokeColor=#DEEDFF;fillColor=#CCE5FF" parent="2izNmpZ97XsuF3mflQXR-467" vertex="1">
          <mxGeometry x="390.86666666666696" y="179.99999999999926" width="71.0666666666665" height="19.999999999999815" as="geometry" />
        </mxCell>
        <mxCell id="108" value="16.12.23" style="strokeColor=#DEEDFF;fillColor=#CCE5FF" parent="2izNmpZ97XsuF3mflQXR-467" vertex="1">
          <mxGeometry x="461.93333333333254" y="179.9999999999996" width="71.0666666666665" height="19.999999999999815" as="geometry" />
        </mxCell>
        <mxCell id="109" value="9" style="strokeColor=#DEEDFF" parent="2izNmpZ97XsuF3mflQXR-467" vertex="1">
          <mxGeometry x="5.933268691175389e-13" y="199.99999999999918" width="35.533333333333125" height="19.999999999999815" as="geometry" />
        </mxCell>
        <mxCell id="110" value="Desarrollo de Preguntas Clave" style="align=left;strokeColor=#DEEDFF" parent="2izNmpZ97XsuF3mflQXR-467" vertex="1">
          <mxGeometry x="35.533333333333715" y="199.99999999999918" width="284.2666666666647" height="19.999999999999815" as="geometry" />
        </mxCell>
        <mxCell id="111" value="7 días" style="strokeColor=#DEEDFF" parent="2izNmpZ97XsuF3mflQXR-467" vertex="1">
          <mxGeometry x="319.8000000000003" y="199.99999999999906" width="71.0666666666665" height="19.999999999999815" as="geometry" />
        </mxCell>
        <mxCell id="112" value="22.11.23" style="strokeColor=#DEEDFF" parent="2izNmpZ97XsuF3mflQXR-467" vertex="1">
          <mxGeometry x="390.86666666666673" y="199.99999999999906" width="71.0666666666665" height="19.999999999999815" as="geometry" />
        </mxCell>
        <mxCell id="113" value="29.11.23" style="strokeColor=#DEEDFF" parent="2izNmpZ97XsuF3mflQXR-467" vertex="1">
          <mxGeometry x="461.93333333333254" y="199.9999999999994" width="71.0666666666665" height="19.999999999999815" as="geometry" />
        </mxCell>
        <mxCell id="114" value="10" style="strokeColor=#DEEDFF" parent="2izNmpZ97XsuF3mflQXR-467" vertex="1">
          <mxGeometry x="5.807028931788678e-13" y="219.99999999999923" width="35.533333333333125" height="19.999999999999815" as="geometry" />
        </mxCell>
        <mxCell id="115" value="Ubicar profesores empleados fuera de la escuela" style="align=left;strokeColor=#DEEDFF" parent="2izNmpZ97XsuF3mflQXR-467" vertex="1">
          <mxGeometry x="35.5333333333337" y="219.99999999999923" width="284.2666666666647" height="19.999999999999815" as="geometry" />
        </mxCell>
        <mxCell id="116" value="7 días" style="strokeColor=#DEEDFF" parent="2izNmpZ97XsuF3mflQXR-467" vertex="1">
          <mxGeometry x="319.8000000000003" y="219.99999999999912" width="71.0666666666665" height="19.999999999999815" as="geometry" />
        </mxCell>
        <mxCell id="117" value="30.11.23" style="strokeColor=#DEEDFF" parent="2izNmpZ97XsuF3mflQXR-467" vertex="1">
          <mxGeometry x="390.86666666666673" y="219.99999999999912" width="71.0666666666665" height="19.999999999999815" as="geometry" />
        </mxCell>
        <mxCell id="118" value="06.12.23" style="strokeColor=#DEEDFF" parent="2izNmpZ97XsuF3mflQXR-467" vertex="1">
          <mxGeometry x="461.93333333333254" y="219.99999999999946" width="71.0666666666665" height="19.999999999999815" as="geometry" />
        </mxCell>
        <mxCell id="119" value="11" style="strokeColor=#DEEDFF" parent="2izNmpZ97XsuF3mflQXR-467" vertex="1">
          <mxGeometry x="3.1559939846677595e-13" y="239.99999999999937" width="35.533333333333125" height="19.999999999999815" as="geometry" />
        </mxCell>
        <mxCell id="120" value="Desarrollo de Entrevistas (De forma anónima)" style="align=left;strokeColor=#DEEDFF" parent="2izNmpZ97XsuF3mflQXR-467" vertex="1">
          <mxGeometry x="35.53333333333344" y="239.99999999999937" width="284.266666666665" height="19.999999999999815" as="geometry" />
        </mxCell>
        <mxCell id="121" value="10 días" style="strokeColor=#DEEDFF" parent="2izNmpZ97XsuF3mflQXR-467" vertex="1">
          <mxGeometry x="319.79999999999995" y="239.99999999999926" width="71.0666666666665" height="19.999999999999815" as="geometry" />
        </mxCell>
        <mxCell id="122" value="13.12.23" style="strokeColor=#DEEDFF" parent="2izNmpZ97XsuF3mflQXR-467" vertex="1">
          <mxGeometry x="390.8666666666665" y="239.99999999999926" width="71.0666666666665" height="19.999999999999815" as="geometry" />
        </mxCell>
        <mxCell id="123" value="23.12.23" style="strokeColor=#DEEDFF" parent="2izNmpZ97XsuF3mflQXR-467" vertex="1">
          <mxGeometry x="461.9333333333322" y="239.9999999999996" width="71.0666666666665" height="19.999999999999815" as="geometry" />
        </mxCell>
        <mxCell id="139" value="12" style="strokeColor=#DEEDFF;fillColor=#CCE5FF" parent="2izNmpZ97XsuF3mflQXR-467" vertex="1">
          <mxGeometry y="259.99999999999966" width="35.533333333333125" height="19.999999999999815" as="geometry" />
        </mxCell>
        <mxCell id="140" value="Evaluación cuantitativa y cualitativa" style="align=left;strokeColor=#DEEDFF;fillColor=#cce5ff;" parent="2izNmpZ97XsuF3mflQXR-467" vertex="1">
          <mxGeometry x="35.533333333333125" y="259.99999999999966" width="284.26666666666534" height="19.999999999999815" as="geometry" />
        </mxCell>
        <mxCell id="141" value="17 días" style="strokeColor=#DEEDFF;fillColor=#CCE5FF" parent="2izNmpZ97XsuF3mflQXR-467" vertex="1">
          <mxGeometry x="319.79999999999967" y="259.99999999999966" width="71.0666666666665" height="19.999999999999815" as="geometry" />
        </mxCell>
        <mxCell id="142" value="24.12.23" style="strokeColor=#DEEDFF;fillColor=#CCE5FF" parent="2izNmpZ97XsuF3mflQXR-467" vertex="1">
          <mxGeometry x="390.8666666666661" y="259.99999999999966" width="71.0666666666665" height="19.999999999999815" as="geometry" />
        </mxCell>
        <mxCell id="143" value="04.01.24" style="strokeColor=#DEEDFF;fillColor=#CCE5FF" parent="2izNmpZ97XsuF3mflQXR-467" vertex="1">
          <mxGeometry x="461.9333333333319" y="259.9999999999999" width="71.0666666666665" height="19.999999999999815" as="geometry" />
        </mxCell>
        <mxCell id="144" value="13" style="strokeColor=#DEEDFF" parent="2izNmpZ97XsuF3mflQXR-467" vertex="1">
          <mxGeometry x="1.2245256660510908e-12" y="279.9999999999997" width="35.533333333333125" height="19.999999999999815" as="geometry" />
        </mxCell>
        <mxCell id="145" value="Desarrollo de Encuestas" style="align=left;strokeColor=#DEEDFF" parent="2izNmpZ97XsuF3mflQXR-467" vertex="1">
          <mxGeometry x="35.53333333333435" y="279.9999999999997" width="284.2666666666641" height="19.999999999999815" as="geometry" />
        </mxCell>
        <mxCell id="146" value="7 días" style="strokeColor=#DEEDFF" parent="2izNmpZ97XsuF3mflQXR-467" vertex="1">
          <mxGeometry x="319.80000000000086" y="279.9999999999997" width="71.0666666666665" height="19.999999999999815" as="geometry" />
        </mxCell>
        <mxCell id="147" value="17.12.23" style="strokeColor=#DEEDFF" parent="2izNmpZ97XsuF3mflQXR-467" vertex="1">
          <mxGeometry x="390.86666666666736" y="279.9999999999997" width="71.0666666666665" height="19.999999999999815" as="geometry" />
        </mxCell>
        <mxCell id="148" value="27.04.12" style="strokeColor=#DEEDFF" parent="2izNmpZ97XsuF3mflQXR-467" vertex="1">
          <mxGeometry x="461.9333333333331" y="279.99999999999994" width="71.0666666666665" height="19.999999999999815" as="geometry" />
        </mxCell>
        <mxCell id="149" value="14" style="strokeColor=#DEEDFF" parent="2izNmpZ97XsuF3mflQXR-467" vertex="1">
          <mxGeometry x="1.2497736179284328e-12" y="299.9999999999994" width="35.533333333333125" height="19.999999999999815" as="geometry" />
        </mxCell>
        <mxCell id="150" value="Evaluación de Resultados" style="align=left;strokeColor=#DEEDFF" parent="2izNmpZ97XsuF3mflQXR-467" vertex="1">
          <mxGeometry x="35.533333333334376" y="299.9999999999994" width="284.2666666666641" height="19.999999999999815" as="geometry" />
        </mxCell>
        <mxCell id="151" value=" 4 días" style="strokeColor=#DEEDFF" parent="2izNmpZ97XsuF3mflQXR-467" vertex="1">
          <mxGeometry x="319.80000000000086" y="299.99999999999926" width="71.0666666666665" height="19.999999999999815" as="geometry" />
        </mxCell>
        <mxCell id="152" value="30.04.12" style="strokeColor=#DEEDFF" parent="2izNmpZ97XsuF3mflQXR-467" vertex="1">
          <mxGeometry x="390.86666666666736" y="299.99999999999926" width="71.0666666666665" height="19.999999999999815" as="geometry" />
        </mxCell>
        <mxCell id="153" value="3.05.12" style="strokeColor=#DEEDFF" parent="2izNmpZ97XsuF3mflQXR-467" vertex="1">
          <mxGeometry x="461.9333333333331" y="299.9999999999996" width="71.0666666666665" height="19.999999999999815" as="geometry" />
        </mxCell>
        <mxCell id="154" value="15" style="strokeColor=#DEEDFF" parent="2izNmpZ97XsuF3mflQXR-467" vertex="1">
          <mxGeometry x="9.97294099155012e-13" y="319.99999999999955" width="35.533333333333125" height="19.999999999999815" as="geometry" />
        </mxCell>
        <mxCell id="155" value="Conclusiones en base a resultados" style="align=left;strokeColor=#DEEDFF" parent="2izNmpZ97XsuF3mflQXR-467" vertex="1">
          <mxGeometry x="35.53333333333412" y="319.99999999999955" width="284.2666666666643" height="19.999999999999815" as="geometry" />
        </mxCell>
        <mxCell id="156" value="6 días" style="strokeColor=#DEEDFF" parent="2izNmpZ97XsuF3mflQXR-467" vertex="1">
          <mxGeometry x="319.80000000000064" y="319.99999999999955" width="71.0666666666665" height="19.999999999999815" as="geometry" />
        </mxCell>
        <mxCell id="157" value="4.05.12" style="strokeColor=#DEEDFF" parent="2izNmpZ97XsuF3mflQXR-467" vertex="1">
          <mxGeometry x="390.86666666666713" y="319.99999999999955" width="71.0666666666665" height="19.999999999999815" as="geometry" />
        </mxCell>
        <mxCell id="158" value="22.05.12" style="strokeColor=#DEEDFF" parent="2izNmpZ97XsuF3mflQXR-467" vertex="1">
          <mxGeometry x="464.5983333333309" y="319.99999999999704" width="68.40166666666626" height="19.999999999999815" as="geometry" />
        </mxCell>
        <mxCell id="174" value="16" style="strokeColor=#DEEDFF;fillColor=#cce5ff;" parent="2izNmpZ97XsuF3mflQXR-467" vertex="1">
          <mxGeometry x="1.57799699233388e-12" y="339.99999999999983" width="35.533333333333125" height="19.999999999999815" as="geometry" />
        </mxCell>
        <mxCell id="175" value="Propuesta de Recomendaciones" style="align=left;strokeColor=#DEEDFF;fillColor=#cce5ff;" parent="2izNmpZ97XsuF3mflQXR-467" vertex="1">
          <mxGeometry x="35.5333333333347" y="339.99999999999983" width="284.26666666666375" height="19.999999999999815" as="geometry" />
        </mxCell>
        <mxCell id="176" value="" style="strokeColor=#DEEDFF;fillColor=#cce5ff;" parent="2izNmpZ97XsuF3mflQXR-467" vertex="1">
          <mxGeometry x="319.80000000000126" y="339.99999999999983" width="71.0666666666665" height="19.999999999999815" as="geometry" />
        </mxCell>
        <mxCell id="177" value="" style="strokeColor=#DEEDFF;fillColor=#cce5ff;" parent="2izNmpZ97XsuF3mflQXR-467" vertex="1">
          <mxGeometry x="390.86666666666775" y="339.99999999999983" width="71.0666666666665" height="19.999999999999815" as="geometry" />
        </mxCell>
        <mxCell id="178" value="" style="strokeColor=#DEEDFF;fillColor=#cce5ff;" parent="2izNmpZ97XsuF3mflQXR-467" vertex="1">
          <mxGeometry x="461.9333333333335" y="340.00000000000006" width="71.0666666666665" height="19.999999999999815" as="geometry" />
        </mxCell>
        <mxCell id="179" value="17" style="strokeColor=#DEEDFF" parent="2izNmpZ97XsuF3mflQXR-467" vertex="1">
          <mxGeometry x="1.3255174735604591e-12" y="360.0000000000001" width="35.533333333333125" height="19.999999999999815" as="geometry" />
        </mxCell>
        <mxCell id="180" value="Desarrollo de modelo" style="align=left;strokeColor=#DEEDFF" parent="2izNmpZ97XsuF3mflQXR-467" vertex="1">
          <mxGeometry x="35.53333333333445" y="360.0000000000001" width="284.266666666664" height="19.999999999999815" as="geometry" />
        </mxCell>
        <mxCell id="181" value="" style="strokeColor=#DEEDFF" parent="2izNmpZ97XsuF3mflQXR-467" vertex="1">
          <mxGeometry x="319.800000000001" y="360" width="71.0666666666665" height="19.999999999999815" as="geometry" />
        </mxCell>
        <mxCell id="182" value="" style="strokeColor=#DEEDFF" parent="2izNmpZ97XsuF3mflQXR-467" vertex="1">
          <mxGeometry x="390.8666666666675" y="360" width="71.0666666666665" height="19.999999999999815" as="geometry" />
        </mxCell>
        <mxCell id="183" value="" style="strokeColor=#DEEDFF" parent="2izNmpZ97XsuF3mflQXR-467" vertex="1">
          <mxGeometry x="461.9333333333332" y="360.00000000000034" width="71.0666666666665" height="19.999999999999815" as="geometry" />
        </mxCell>
        <mxCell id="184" value="18" style="strokeColor=#DEEDFF" parent="2izNmpZ97XsuF3mflQXR-467" vertex="1">
          <mxGeometry x="1.2497736179284328e-12" y="379.9999999999999" width="35.533333333333125" height="19.999999999999815" as="geometry" />
        </mxCell>
        <mxCell id="185" value="Entrenamiento de Modelo en Base a Resultados" style="align=left;strokeColor=#DEEDFF" parent="2izNmpZ97XsuF3mflQXR-467" vertex="1">
          <mxGeometry x="35.533333333334376" y="379.9999999999999" width="284.2666666666641" height="19.999999999999815" as="geometry" />
        </mxCell>
        <mxCell id="186" value="" style="strokeColor=#DEEDFF" parent="2izNmpZ97XsuF3mflQXR-467" vertex="1">
          <mxGeometry x="319.8000000000009" y="379.9999999999998" width="71.0666666666665" height="19.999999999999815" as="geometry" />
        </mxCell>
        <mxCell id="187" value="" style="strokeColor=#DEEDFF" parent="2izNmpZ97XsuF3mflQXR-467" vertex="1">
          <mxGeometry x="390.8666666666674" y="379.9999999999998" width="71.0666666666665" height="19.999999999999815" as="geometry" />
        </mxCell>
        <mxCell id="188" value="" style="strokeColor=#DEEDFF" parent="2izNmpZ97XsuF3mflQXR-467" vertex="1">
          <mxGeometry x="461.9333333333332" y="380.0000000000001" width="71.0666666666665" height="19.999999999999815" as="geometry" />
        </mxCell>
        <mxCell id="189" value="19" style="strokeColor=#DEEDFF" parent="2izNmpZ97XsuF3mflQXR-467" vertex="1">
          <mxGeometry x="1.2497736179284328e-12" y="399.99999999999994" width="35.533333333333125" height="19.999999999999815" as="geometry" />
        </mxCell>
        <mxCell id="190" value="Propuesta Final" style="align=left;strokeColor=#DEEDFF" parent="2izNmpZ97XsuF3mflQXR-467" vertex="1">
          <mxGeometry x="35.53333333333435" y="399.99999999999994" width="284.2666666666641" height="19.999999999999815" as="geometry" />
        </mxCell>
        <mxCell id="191" value="" style="strokeColor=#DEEDFF" parent="2izNmpZ97XsuF3mflQXR-467" vertex="1">
          <mxGeometry x="319.8000000000009" y="399.99999999999983" width="71.0666666666665" height="19.999999999999815" as="geometry" />
        </mxCell>
        <mxCell id="192" value="" style="strokeColor=#DEEDFF" parent="2izNmpZ97XsuF3mflQXR-467" vertex="1">
          <mxGeometry x="390.8666666666674" y="399.99999999999983" width="71.0666666666665" height="19.999999999999815" as="geometry" />
        </mxCell>
        <mxCell id="193" value="" style="strokeColor=#DEEDFF" parent="2izNmpZ97XsuF3mflQXR-467" vertex="1">
          <mxGeometry x="461.9333333333332" y="400.00000000000017" width="71.0666666666665" height="19.999999999999815" as="geometry" />
        </mxCell>
        <mxCell id="2" value="Task Name" style="fillColor=#23445D;strokeColor=#FFFFFF;strokeWidth=2;fontColor=#FFFFFF;fontStyle=1" parent="2izNmpZ97XsuF3mflQXR-467" vertex="1">
          <mxGeometry x="35.533333333333466" width="284.266666666665" height="39.99999999999963" as="geometry" />
        </mxCell>
        <mxCell id="3" value="" style="fillColor=#23445D;strokeColor=#FFFFFF;strokeWidth=2;fontColor=#FFFFFF;fontStyle=1" parent="2izNmpZ97XsuF3mflQXR-467" vertex="1">
          <mxGeometry x="3.4084735034411803e-13" width="35.533333333333125" height="39.99999999999963" as="geometry" />
        </mxCell>
        <mxCell id="12" value="Duration" style="fillColor=#23445D;strokeColor=#FFFFFF;strokeWidth=2;fontColor=#FFFFFF;fontStyle=1" parent="2izNmpZ97XsuF3mflQXR-467" vertex="1">
          <mxGeometry x="319.8" y="5.684341886080749e-14" width="71.0666666666663" height="39.99999999999964" as="geometry" />
        </mxCell>
        <mxCell id="13" value="Start" style="fillColor=#23445D;strokeColor=#FFFFFF;strokeWidth=2;fontColor=#FFFFFF;fontStyle=1" parent="2izNmpZ97XsuF3mflQXR-467" vertex="1">
          <mxGeometry x="390.86666666666633" y="5.684341886080749e-14" width="71.0666666666663" height="39.99999999999964" as="geometry" />
        </mxCell>
        <mxCell id="14" value="ETA" style="fillColor=#23445D;strokeColor=#FFFFFF;strokeWidth=2;fontColor=#FFFFFF;fontStyle=1" parent="2izNmpZ97XsuF3mflQXR-467" vertex="1">
          <mxGeometry x="461.93333333333266" y="1.1368683772161498e-13" width="71.0666666666663" height="39.99999999999964" as="geometry" />
        </mxCell>
        <mxCell id="2izNmpZ97XsuF3mflQXR-468" value="&lt;font style=&quot;font-size: 36px;&quot;&gt;Distribución de Tiempos&lt;br&gt;DIAGRAMA DE GANTT&lt;/font&gt;" style="text;html=1;strokeColor=none;fillColor=none;align=center;verticalAlign=middle;whiteSpace=wrap;rounded=0;" vertex="1" parent="1">
          <mxGeometry x="310" y="170" width="830" height="30" as="geometry" />
        </mxCell>
      </root>
    </mxGraphModel>
  </diagram>
  <diagram id="CqJgl8Kgr2ta24YKsHzs" name="Página-2">
    <mxGraphModel dx="687" dy="420" grid="1" gridSize="10" guides="1" tooltips="1" connect="1" arrows="1" fold="1" page="1" pageScale="1" pageWidth="1169" pageHeight="827" math="0" shadow="0">
      <root>
        <mxCell id="0" />
        <mxCell id="1" parent="0" />
        <mxCell id="vxXXV7OGQVcEE1DAPXl7-1" value="&lt;p style=&quot;margin: 0px 0px 10px; color: rgb(85, 85, 85); font-family: &amp;quot;Open Sans&amp;quot;, sans-serif; font-size: 13px; font-style: normal; font-variant-ligatures: normal; font-variant-caps: normal; font-weight: 400; letter-spacing: normal; orphans: 2; text-align: left; text-indent: 0px; text-transform: none; widows: 2; word-spacing: 0px; -webkit-text-stroke-width: 0px; background-color: rgb(255, 255, 255); text-decoration-thickness: initial; text-decoration-style: initial; text-decoration-color: initial;&quot;&gt;In some cases, capturing different aspects of the intended product in more formal or structured representations is appropriate. For example, when developing safety-critical devices, the functionality, user interface, and interaction of the system need to be specified unambiguously and precisely. Sapna Jaidka et&amp;nbsp;al. (2017) suggest using the Z formal notation (a mathematically based specification language) and petri nets (a notation for modeling distributed systems based on directed graphs) to model the interaction behavior of medical infusion pumps. Harold Thimbleby (2015) points out that using a formal expression of requirements for number entry user interfaces such as calculators, spreadsheets, and medical devices could avoid bugs and inconsistencies.&lt;/p&gt;&lt;p style=&quot;margin: 0px 0px 10px; color: rgb(85, 85, 85); font-family: &amp;quot;Open Sans&amp;quot;, sans-serif; font-size: 13px; font-style: normal; font-variant-ligatures: normal; font-variant-caps: normal; font-weight: 400; letter-spacing: normal; orphans: 2; text-align: left; text-indent: 0px; text-transform: none; widows: 2; word-spacing: 0px; -webkit-text-stroke-width: 0px; background-color: rgb(255, 255, 255); text-decoration-thickness: initial; text-decoration-style: initial; text-decoration-color: initial;&quot;&gt;However, two techniques that are commonly used to augment the basic requirements information and to bring requirements to life are personas and scenarios. Often used together, they complement each other in order to bring realistic detail that allows the developer to explore the user&#39;s current activities, future use of new products, and futuristic visions of new technologies. They can also guide development throughout the product lifecycle.&lt;/p&gt;" style="text;whiteSpace=wrap;html=1;" vertex="1" parent="1">
          <mxGeometry x="25" width="560" height="280" as="geometry" />
        </mxCell>
        <mxCell id="VXZt_XnMn8oMH1LyI20P-2" value="&lt;h3 style=&quot;margin: 10px 0px; font-family: &amp;quot;Open Sans&amp;quot;, sans-serif; line-height: 3.08rem; color: rgb(85, 85, 85); text-rendering: optimizelegibility; font-size: 1.85rem; font-style: normal; font-variant-ligatures: normal; font-variant-caps: normal; letter-spacing: normal; orphans: 2; text-align: left; text-indent: 0px; text-transform: none; widows: 2; word-spacing: 0px; -webkit-text-stroke-width: 0px; background-color: rgb(255, 255, 255); text-decoration-thickness: initial; text-decoration-style: initial; text-decoration-color: initial; font-weight: 700 !important;&quot;&gt;Personas&lt;/h3&gt;&lt;p style=&quot;margin: 0px 0px 10px; color: rgb(85, 85, 85); font-family: &amp;quot;Open Sans&amp;quot;, sans-serif; font-size: 13px; font-style: normal; font-variant-ligatures: normal; font-variant-caps: normal; font-weight: 400; letter-spacing: normal; orphans: 2; text-align: left; text-indent: 0px; text-transform: none; widows: 2; word-spacing: 0px; -webkit-text-stroke-width: 0px; background-color: rgb(255, 255, 255); text-decoration-thickness: initial; text-decoration-style: initial; text-decoration-color: initial;&quot;&gt;Personas (Cooper, 1999) are rich descriptions of typical users of the product under development on which the designers can focus and for which they can design products. They don&#39;t describe specific people, but rather they are realistic, and not idealized. Any one persona represents a synthesis of a number of real users who have been involved in data gathering, and it is based on a set of user profiles. Each persona is characterized by a unique set of goals relating to the particular product under development, rather than a job description or a simple demographic. This is because goals often differ among people within the same job role or the same demographic.&lt;/p&gt;&lt;p style=&quot;margin: 0px 0px 10px; color: rgb(85, 85, 85); font-family: &amp;quot;Open Sans&amp;quot;, sans-serif; font-size: 13px; font-style: normal; font-variant-ligatures: normal; font-variant-caps: normal; font-weight: 400; letter-spacing: normal; orphans: 2; text-align: left; text-indent: 0px; text-transform: none; widows: 2; word-spacing: 0px; -webkit-text-stroke-width: 0px; background-color: rgb(255, 255, 255); text-decoration-thickness: initial; text-decoration-style: initial; text-decoration-color: initial;&quot;&gt;In addition to their goals, a persona will include a description of the user&#39;s behavior, attitudes, activities, and environment. These items are all specified in some detail. For instance, instead of describing someone simply as a competent sailor, the persona includes that they have completed a Day Skipper qualification, have more than 100 hours of sailing experience in and around European waters, and get irritated by other sailors who don&#39;t follow the navigation rules. Each persona has a name, often a photograph, and some personal details such as what they do as a hobby. It is the addition of precise, credible details that helps designers to see the personas as real potential users, and hence as people for whom they can design.&lt;/p&gt;&lt;p style=&quot;margin: 0px 0px 10px; color: rgb(85, 85, 85); font-family: &amp;quot;Open Sans&amp;quot;, sans-serif; font-size: 13px; font-style: normal; font-variant-ligatures: normal; font-variant-caps: normal; font-weight: 400; letter-spacing: normal; orphans: 2; text-align: left; text-indent: 0px; text-transform: none; widows: 2; word-spacing: 0px; -webkit-text-stroke-width: 0px; background-color: rgb(255, 255, 255); text-decoration-thickness: initial; text-decoration-style: initial; text-decoration-color: initial;&quot;&gt;A product will usually require a small set of personas rather than just one. It may be helpful to choose a few, or maybe only one, primary personas who represent a large section of the intended user group. Personas are used widely, and they have proved to be a powerful way to communicate user characteristics and goals to designers and developers.&lt;/p&gt;&lt;p style=&quot;margin: 0px 0px 10px; color: rgb(85, 85, 85); font-family: &amp;quot;Open Sans&amp;quot;, sans-serif; font-size: 13px; font-style: normal; font-variant-ligatures: normal; font-variant-caps: normal; font-weight: 400; letter-spacing: normal; orphans: 2; text-align: left; text-indent: 0px; text-transform: none; widows: 2; word-spacing: 0px; -webkit-text-stroke-width: 0px; background-color: rgb(255, 255, 255); text-decoration-thickness: initial; text-decoration-style: initial; text-decoration-color: initial;&quot;&gt;A good persona helps the designer understand whether a particular design decision will help or hinder their users. To this end, a persona has two goals (Caddick and Cable, 2011):&lt;/p&gt;&lt;ul style=&quot;padding: 0px; margin: 0px 0px 10px 25px; color: rgb(85, 85, 85); font-family: &amp;quot;Open Sans&amp;quot;, sans-serif; font-size: 13px; font-style: normal; font-variant-ligatures: normal; font-variant-caps: normal; font-weight: 400; letter-spacing: normal; orphans: 2; text-align: left; text-indent: 0px; text-transform: none; widows: 2; word-spacing: 0px; -webkit-text-stroke-width: 0px; background-color: rgb(255, 255, 255); text-decoration-thickness: initial; text-decoration-style: initial; text-decoration-color: initial;&quot;&gt;&lt;li style=&quot;line-height: 20px;&quot;&gt;To help the designer make design decisions&lt;/li&gt;&lt;li style=&quot;line-height: 20px;&quot;&gt;To remind the team that real people will be using the product&lt;/li&gt;&lt;/ul&gt;&lt;p style=&quot;margin: 0px 0px 10px; color: rgb(85, 85, 85); font-family: &amp;quot;Open Sans&amp;quot;, sans-serif; font-size: 13px; font-style: normal; font-variant-ligatures: normal; font-variant-caps: normal; font-weight: 400; letter-spacing: normal; orphans: 2; text-align: left; text-indent: 0px; text-transform: none; widows: 2; word-spacing: 0px; -webkit-text-stroke-width: 0px; background-color: rgb(255, 255, 255); text-decoration-thickness: initial; text-decoration-style: initial; text-decoration-color: initial;&quot;&gt;A good persona is one that supports the kind of reasoning that says, “What would Bill (persona 1) do in this situation with the product?” and “How would Clara (persona 2) respond if the product behaved this way?” But good personas can be challenging to develop. The kind of information they include needs to be pertinent to the product being developed. For example, personas for a shared travel organizer would focus on travel-related behavior and attitudes rather than the newspapers the personas read or where they buy their clothes. On the other hand, personas for a shopping center navigation system might consider these aspects.&lt;/p&gt;" style="text;whiteSpace=wrap;html=1;" vertex="1" parent="1">
          <mxGeometry x="25" y="220" width="560" height="690" as="geometry" />
        </mxCell>
        <mxCell id="VXZt_XnMn8oMH1LyI20P-3" value="&lt;h3 style=&quot;margin: 10px 0px; font-family: &amp;quot;Open Sans&amp;quot;, sans-serif; line-height: 3.08rem; color: rgb(85, 85, 85); text-rendering: optimizelegibility; font-size: 1.85rem; font-style: normal; font-variant-ligatures: normal; font-variant-caps: normal; letter-spacing: normal; orphans: 2; text-align: left; text-indent: 0px; text-transform: none; widows: 2; word-spacing: 0px; -webkit-text-stroke-width: 0px; background-color: rgb(255, 255, 255); text-decoration-thickness: initial; text-decoration-style: initial; text-decoration-color: initial; font-weight: 700 !important;&quot;&gt;Scenarios&lt;/h3&gt;&lt;p style=&quot;margin: 0px 0px 10px; color: rgb(85, 85, 85); font-family: &amp;quot;Open Sans&amp;quot;, sans-serif; font-size: 13px; font-style: normal; font-variant-ligatures: normal; font-variant-caps: normal; font-weight: 400; letter-spacing: normal; orphans: 2; text-align: left; text-indent: 0px; text-transform: none; widows: 2; word-spacing: 0px; -webkit-text-stroke-width: 0px; background-color: rgb(255, 255, 255); text-decoration-thickness: initial; text-decoration-style: initial; text-decoration-color: initial;&quot;&gt;A scenario is an&lt;span&gt;&amp;nbsp;&lt;/span&gt;&lt;i&gt;“informal narrative description”&lt;/i&gt;&lt;span&gt;&amp;nbsp;&lt;/span&gt;(Carroll, 2000). It describes human activities or tasks in a story that allows exploration and discussion of contexts, needs, and requirements. It does not necessarily describe the use of software or other technological support used to achieve a goal. Using the vocabulary and phrasing of users means that scenarios can be understood by stakeholders, and they are able to participate fully in development.&lt;/p&gt;&lt;p style=&quot;margin: 0px 0px 10px; color: rgb(85, 85, 85); font-family: &amp;quot;Open Sans&amp;quot;, sans-serif; font-size: 13px; font-style: normal; font-variant-ligatures: normal; font-variant-caps: normal; font-weight: 400; letter-spacing: normal; orphans: 2; text-align: left; text-indent: 0px; text-transform: none; widows: 2; word-spacing: 0px; -webkit-text-stroke-width: 0px; background-color: rgb(255, 255, 255); text-decoration-thickness: initial; text-decoration-style: initial; text-decoration-color: initial;&quot;&gt;Imagine that you have been asked to investigate how a design team working on a large building project shares information. This kind of team includes several roles, such as an architect, mechanical engineer, client, quantity surveyor, and electrical engineer. On arrival, you are greeted by Daniel, the architect, who starts by saying something like the following:&lt;/p&gt;&lt;div style=&quot;color: rgb(85, 85, 85); font-family: &amp;quot;Open Sans&amp;quot;, sans-serif; font-size: 13px; font-style: normal; font-variant-ligatures: normal; font-variant-caps: normal; font-weight: 400; letter-spacing: normal; orphans: 2; text-align: left; text-indent: 0px; text-transform: none; widows: 2; word-spacing: 0px; -webkit-text-stroke-width: 0px; text-decoration-thickness: initial; text-decoration-style: initial; text-decoration-color: initial; border: 2px solid rgb(222, 222, 222); background-color: skyblue; border-radius: 5px; padding: 10px; margin: 10px 0px;&quot;&gt;&lt;img src=&quot;https://iconarchive.com/download/i57291/iloveicons.ru/browser-girl/browser-girl-opera.ico&quot; alt=&quot;&quot; style=&quot;vertical-align: middle; border: 0px; float: left; max-width: 60px; width: 60px; margin-right: 20px; border-radius: 50%; background-color: whitesmoke; filter: invert(0);&quot;&gt;&lt;p style=&quot;margin: 0px 0px 10px;&quot;&gt;&lt;strong style=&quot;font-weight: 700;&quot;&gt;&lt;i&gt;Every member of the design team needs to understand the overall purpose, but we each take a different perspective on the design decisions that have to be made. For example, the quantity surveyor will keep an eye on how much things cost, the mechanical engineer will want to make sure that the design accounts for ventilation systems, and so on. When the architect presents a design concept, such as a spiral staircase, each of us will view that concept from our own discipline and assess whether it will work as envisioned in the given location. This means that we need to share information about the project goals, the reason for decisions, and the overall budget, as well as drawing on our own discipline expertise to advise the client on options and consequences.&lt;/i&gt;&lt;/strong&gt;&lt;/p&gt;&lt;/div&gt;&lt;p style=&quot;margin: 0px 0px 10px; color: rgb(85, 85, 85); font-family: &amp;quot;Open Sans&amp;quot;, sans-serif; font-size: 13px; font-style: normal; font-variant-ligatures: normal; font-variant-caps: normal; font-weight: 400; letter-spacing: normal; orphans: 2; text-align: left; text-indent: 0px; text-transform: none; widows: 2; word-spacing: 0px; -webkit-text-stroke-width: 0px; background-color: rgb(255, 255, 255); text-decoration-thickness: initial; text-decoration-style: initial; text-decoration-color: initial;&quot;&gt;Telling stories is a natural way for people to explain what they are doing, and stakeholders can easily relate to them. The focus of such stories is also naturally likely to be about what the users are trying to achieve, that is, their goals. Understanding why people do things as they do and what they are trying to achieve in the process focuses the study on human activity rather than interaction with technology. Starting with current behavior allows the designer to identify the stakeholders and artifacts involved in an activity. Repeated reference to a particular app, drawing, behavior, or location indicates that it is somehow central to the activity being performed and that it deserves close attention to uncover the role it plays. Understanding current behavior also allows the designer to explore the constraints, contexts, irritations, facilitators, and so on, under which people operate. For example, the next scenario reflects on the persona Ben and it complement each other to give a fuller picture of the activities related to a user such as Ben would engage.&lt;/p&gt;&lt;div style=&quot;color: rgb(85, 85, 85); font-family: &amp;quot;Open Sans&amp;quot;, sans-serif; font-size: 13px; font-style: normal; font-variant-ligatures: normal; font-variant-caps: normal; font-weight: 400; letter-spacing: normal; orphans: 2; text-align: left; text-indent: 0px; text-transform: none; widows: 2; word-spacing: 0px; -webkit-text-stroke-width: 0px; text-decoration-thickness: initial; text-decoration-style: initial; text-decoration-color: initial; border: 2px solid rgb(222, 222, 222); background-color: bisque; border-radius: 5px; padding: 10px; margin: 10px 0px;&quot;&gt;&lt;p style=&quot;margin: 0px 0px 10px;&quot;&gt;Ben is out with friends, catching up over a meal. A friend asks if he has ever made the dish they are eating. This reminds Ben that he has not cooked for a while.&lt;/p&gt;&lt;p style=&quot;margin: 0px 0px 10px;&quot;&gt;Later in the week, Ben sees a TV programme on cooking and again he is reminded that he has not cooked for a while. Thus he decides to cook later that week. Ben goes online and Google&#39;s “mee soto”. He looks through the various sites for pictures that not only look good, but also have few steps and a short time to cook. He spends some time browsing through the sites for other ideas to use in the future.&lt;/p&gt;&lt;p style=&quot;margin: 0px 0px 10px;&quot;&gt;Next day at work, he remembers to go to the supermarket on his way home. As he is only getting a few ingredients (for a simple recipe), he just remembers what he needs to get. He buys ingredients in whatever size is readily available and is not too concerned about the freshness. Whilst in the shop, he also makes some spontaneous purchases.&lt;/p&gt;&lt;p style=&quot;margin: 0px 0px 10px;&quot;&gt;On the day he is cooking, Ben checks out a YouTube video on preparing chicken pieces. When he gets home he prints out a recipe and asks his mum for some last minute advice. He had asked her previously about a similar question, but was so long ago that he has forgotten her advice. His mum looks at the recipe and suggests some alterations to it and writes notes on the recipe.&lt;/p&gt;&lt;p style=&quot;margin: 0px 0px 10px;&quot;&gt;Ben places the recipe near the stove and follows it closely in terms of steps (one process at a time, no preparation) though haphazardly gauges the amount of ingredients to put in. He tries to gauge one portion&#39;s worth of ingredients (the recipe is for 3 people), only using some of the chicken, so puts rest back in fridge (he thinks his mum might use it later). He will estimate the time the mee soto needs for cooking, tasting it when he thinks it is ready. He is initially worried about hot oil splashing on his face, so he is hesitant when handling the hot pan.&lt;/p&gt;&lt;p style=&quot;margin: 0px 0px 10px;&quot;&gt;When ready, he serves the dish and finds out he has made a bit too much. Depending on how much leftover is available, he will either put it in the fridge for later or it will just be wasted.&lt;/p&gt;&lt;p style=&quot;margin: 0px 0px 10px;&quot;&gt;Afterwards he loads up pictures of the dish on Facebook. He is greatly encouraged when people ‘like&#39; his link or leave a comment and it makes him feel good.&lt;/p&gt;&lt;/div&gt;&lt;p style=&quot;margin: 0px 0px 10px; color: rgb(85, 85, 85); font-family: &amp;quot;Open Sans&amp;quot;, sans-serif; font-size: 13px; font-style: normal; font-variant-ligatures: normal; font-variant-caps: normal; font-weight: 400; letter-spacing: normal; orphans: 2; text-align: left; text-indent: 0px; text-transform: none; widows: 2; word-spacing: 0px; -webkit-text-stroke-width: 0px; background-color: rgb(255, 255, 255); text-decoration-thickness: initial; text-decoration-style: initial; text-decoration-color: initial;&quot;&gt;The previous scenario describes existing behavior, but scenarios can also be used to describe behavior with a potential new technology. For example, a scenario that might be generated by potential users of a new navigation app for a large shopping center is given here:&lt;/p&gt;&lt;div style=&quot;color: rgb(85, 85, 85); font-family: &amp;quot;Open Sans&amp;quot;, sans-serif; font-size: 13px; font-style: normal; font-variant-ligatures: normal; font-variant-caps: normal; font-weight: 400; letter-spacing: normal; orphans: 2; text-align: left; text-indent: 0px; text-transform: none; widows: 2; word-spacing: 0px; -webkit-text-stroke-width: 0px; text-decoration-thickness: initial; text-decoration-style: initial; text-decoration-color: initial; border: 2px solid rgb(222, 222, 222); background-color: bisque; border-radius: 5px; padding: 10px; margin: 10px 0px;&quot;&gt;&lt;p style=&quot;margin: 0px 0px 10px;&quot;&gt;&lt;strong style=&quot;font-weight: 700;&quot;&gt;&lt;i&gt;Charlie wants to take his elderly mother, Freia, to his favorite home products store, ComfortAtHome. He knows that the store has moved within the shopping center, but he doesn&#39;t know where. He also needs to find a route that is suitable for his mother who uses a walker but doesn&#39;t like elevators. He opens the navigation app on his smartphone and enters the name of the store in the search feature. Two different branches of the store are listed, and Charlie asks for directions to the one nearest to their current location. A map of the shopping center is displayed, showing their current location, the location of the nearest store, and the suggested route. This route, however, includes a series of steps that are unsuitable for his mother. So, he asks for an alternative route that uses only ramps, which the app displays. They set off, following the new route provided.&lt;/i&gt;&lt;/strong&gt;&lt;/p&gt;&lt;/div&gt;&lt;p style=&quot;margin: 0px 0px 10px; color: rgb(85, 85, 85); font-family: &amp;quot;Open Sans&amp;quot;, sans-serif; font-size: 13px; font-style: normal; font-variant-ligatures: normal; font-variant-caps: normal; font-weight: 400; letter-spacing: normal; orphans: 2; text-align: left; text-indent: 0px; text-transform: none; widows: 2; word-spacing: 0px; -webkit-text-stroke-width: 0px; background-color: rgb(255, 255, 255); text-decoration-thickness: initial; text-decoration-style: initial; text-decoration-color: initial;&quot;&gt;Note the following in this limited scenario: the provision of a search facility to find the store&#39;s location (but what if the user doesn&#39;t know the store name or wants to locate all home products shops), the facility to display a map, and the importance of different options for the navigation routes to accommodate different users. These are all indicators of potential design choices for the new system. The scenario also describes one use of the app—to find a route to the nearest branch of a specific store.&lt;/p&gt;&lt;p style=&quot;margin: 0px 0px 10px; color: rgb(85, 85, 85); font-family: &amp;quot;Open Sans&amp;quot;, sans-serif; font-size: 13px; font-style: normal; font-variant-ligatures: normal; font-variant-caps: normal; font-weight: 400; letter-spacing: normal; orphans: 2; text-align: left; text-indent: 0px; text-transform: none; widows: 2; word-spacing: 0px; -webkit-text-stroke-width: 0px; background-color: rgb(255, 255, 255); text-decoration-thickness: initial; text-decoration-style: initial; text-decoration-color: initial;&quot;&gt;During the requirements activity, scenarios emphasize the context, the usability and user experience goals, and the activities in which the user is engaged. Scenarios are often generated during workshop, interview, or brainstorming sessions to help explain or discuss some aspect of the user&#39;s goals. They capture only one perspective, perhaps a single use of the product, or one example of how a goal might be achieved.&lt;/p&gt;&lt;p style=&quot;margin: 0px 0px 10px; color: rgb(85, 85, 85); font-family: &amp;quot;Open Sans&amp;quot;, sans-serif; font-size: 13px; font-style: normal; font-variant-ligatures: normal; font-variant-caps: normal; font-weight: 400; letter-spacing: normal; orphans: 2; text-align: left; text-indent: 0px; text-transform: none; widows: 2; word-spacing: 0px; -webkit-text-stroke-width: 0px; background-color: rgb(255, 255, 255); text-decoration-thickness: initial; text-decoration-style: initial; text-decoration-color: initial;&quot;&gt;Scenarios may be constructed as textual descriptions, like those shown previously, but they can also use audio or video. For example, Alen Keirnan et&amp;nbsp;al. (2015) used animated scenarios to present early user research findings about wearable emergency alarms for older people. They found that the animated scenarios helped participants to describe problems associated with the use of emergency alarm technology and to discuss and evaluate key emotions and themes (see the following videos).&lt;/p&gt;" style="text;whiteSpace=wrap;html=1;" vertex="1" parent="1">
          <mxGeometry x="609" width="560" height="1830" as="geometry" />
        </mxCell>
      </root>
    </mxGraphModel>
  </diagram>
  <diagram id="Yd5Ds8xDyt9ZE2a9sEUn" name="Metaforas">
    <mxGraphModel dx="756" dy="462" grid="1" gridSize="10" guides="1" tooltips="1" connect="1" arrows="1" fold="1" page="1" pageScale="1" pageWidth="1169" pageHeight="827" math="0" shadow="0">
      <root>
        <mxCell id="0" />
        <mxCell id="1" parent="0" />
        <mxCell id="JHd76zeEmz-U5DrmhZWC-1" value="&lt;h3 style=&quot;margin: 10px 0px; font-family: &amp;quot;Open Sans&amp;quot;, sans-serif; line-height: 3.08rem; color: rgb(85, 85, 85); text-rendering: optimizelegibility; font-size: 1.85rem; font-style: normal; font-variant-ligatures: normal; font-variant-caps: normal; letter-spacing: normal; orphans: 2; text-align: left; text-indent: 0px; text-transform: none; widows: 2; word-spacing: 0px; -webkit-text-stroke-width: 0px; background-color: rgb(255, 255, 255); text-decoration-thickness: initial; text-decoration-style: initial; text-decoration-color: initial; font-weight: 700 !important;&quot;&gt;Interface Metaphors&lt;/h3&gt;&lt;p style=&quot;margin: 0px 0px 10px; color: rgb(85, 85, 85); font-family: &amp;quot;Open Sans&amp;quot;, sans-serif; font-size: 13px; font-style: normal; font-variant-ligatures: normal; font-variant-caps: normal; font-weight: 400; letter-spacing: normal; orphans: 2; text-align: left; text-indent: 0px; text-transform: none; widows: 2; word-spacing: 0px; -webkit-text-stroke-width: 0px; background-color: rgb(255, 255, 255); text-decoration-thickness: initial; text-decoration-style: initial; text-decoration-color: initial;&quot;&gt;Metaphors are considered to be a central component of a conceptual model. They provide a structure that is similar in some way to aspects of a familiar entity (or entities), but they also have their own behaviors and properties. More specifically, an interface metaphor is one that is instantiated in some way as part of the user interface, such as the desktop metaphor. Another well-known one is the search engine, originally coined in the early 1990s to refer to a software tool that indexed and retrieved files remotely from the Internet using various algorithms to match terms selected by the user. The metaphor invites comparisons between a mechanical engine, which has several working parts, and the everyday action of looking in different places to find something. The functions supported by a search engine also include other features besides those belonging to an engine that searches, such as listing and prioritizing the results of a search. It also does these actions in quite different ways from how a mechanical engine works or how a human being might search a library for books on a given topic. The similarities implied by the use of the term search engine, therefore, are at a general level. They are meant to conjure up the essence of the process of finding relevant information, enabling the user to link these to less familiar aspects of the functionality provided.&lt;/p&gt;&lt;p style=&quot;margin: 0px 0px 10px; color: rgb(85, 85, 85); font-family: &amp;quot;Open Sans&amp;quot;, sans-serif; font-size: 13px; font-style: normal; font-variant-ligatures: normal; font-variant-caps: normal; font-weight: 400; letter-spacing: normal; orphans: 2; text-align: left; text-indent: 0px; text-transform: none; widows: 2; word-spacing: 0px; -webkit-text-stroke-width: 0px; background-color: rgb(255, 255, 255); text-decoration-thickness: initial; text-decoration-style: initial; text-decoration-color: initial;&quot;&gt;Tremendous commercial successes in computing have arisen directly from a judicious choice of metaphor. The Xerox Alto and Star were the first workstations based on the metaphor of the office desktop. The majority of the management tasks on a standard workstation have to do with file manipulation. Linking the set of tasks associated with file manipulation to the filing tasks in a typical office environment makes the actual computerized tasks easier to understand at first. The success of the desktop metaphor is unquestionable. Another good example in the personal computing domain is the widespread use of the spreadsheet metaphor for accounting and financial modeling.&lt;/p&gt;&lt;p style=&quot;margin: 0px 0px 10px; color: rgb(85, 85, 85); font-family: &amp;quot;Open Sans&amp;quot;, sans-serif; font-size: 13px; font-style: normal; font-variant-ligatures: normal; font-variant-caps: normal; font-weight: 400; letter-spacing: normal; orphans: 2; text-align: left; text-indent: 0px; text-transform: none; widows: 2; word-spacing: 0px; -webkit-text-stroke-width: 0px; background-color: rgb(255, 255, 255); text-decoration-thickness: initial; text-decoration-style: initial; text-decoration-color: initial;&quot;&gt;Interface metaphors are intended to provide familiar entities that enable people readily to understand the underlying conceptual model and know what to do at the interface. However, they can also contravene people&#39;s expectations about how things should be, such as the recycle bin (trash can) that sits on the desktop. Logically and culturally (meaning, in the real world), it should be placed under the desk. But users would not have been able to see it because it would have been hidden by the desktop surface. So, it needed to go on the desktop. While some users found this irksome, most did not find it to be a problem. Once they understood why the recycle bin icon was on the desktop, they simply accepted it being there.&lt;/p&gt;&lt;p style=&quot;margin: 0px 0px 10px; color: rgb(85, 85, 85); font-family: &amp;quot;Open Sans&amp;quot;, sans-serif; font-size: 13px; font-style: normal; font-variant-ligatures: normal; font-variant-caps: normal; font-weight: 400; letter-spacing: normal; orphans: 2; text-align: left; text-indent: 0px; text-transform: none; widows: 2; word-spacing: 0px; -webkit-text-stroke-width: 0px; background-color: rgb(255, 255, 255); text-decoration-thickness: initial; text-decoration-style: initial; text-decoration-color: initial;&quot;&gt;An interface metaphor that has become popular in the last few years is the card. Many of the social media apps, such as Facebook, Twitter, and Pinterest, present their content on cards. Cards have a familiar form, having been around for a long time. Just think of how many kinds there are: playing cards, business cards, birthday cards, credit cards, and postcards to name a few. They have strong associations, providing an intuitive way of organizing limited content that is “card sized.” They can easily be flicked through, sorted, and themed. They structure content into meaningful chunks, similar to how paragraphs are used to chunk a set of related sentences into distinct sections (Babich, 2016). In the context of the smartphone interface, the Google Now card provides short snippets of useful information. This appears on and moves across the screen in the way people would expect a real card to do—in a lightweight, paper-based sort of way. The elements are also structured to appear as if they were on a card of a fixed size, rather than, say, in a scrolling web page (see next Figure).&lt;/p&gt;&lt;figure style=&quot;display: flex; color: rgb(85, 85, 85); font-family: &amp;quot;Open Sans&amp;quot;, sans-serif; font-size: 13px; font-style: normal; font-variant-ligatures: normal; font-variant-caps: normal; font-weight: 400; letter-spacing: normal; orphans: 2; text-align: left; text-indent: 0px; text-transform: none; widows: 2; word-spacing: 0px; -webkit-text-stroke-width: 0px; background-color: rgb(255, 255, 255); text-decoration-thickness: initial; text-decoration-style: initial; text-decoration-color: initial; border: thin solid rgb(192, 192, 192); flex-flow: column; padding: 5px; max-width: 480px; margin: auto;&quot;&gt;&lt;img src=&quot;https://i1.wp.com/img.talkandroid.com/uploads/2015/04/googlenowupdate.jpg&quot; class=&quot;img-responsive&quot; style=&quot;vertical-align: middle; border: 0px; max-width: 100%; height: auto; width: auto; filter: invert(0);&quot;&gt;&lt;figcaption style=&quot;display: block; background-color: rgb(34, 34, 34); color: rgb(255, 255, 255); font: italic smaller sans-serif; padding: 3px; text-align: center;&quot;&gt;&lt;strong style=&quot;font-weight: 700;&quot;&gt;Google Now Card&lt;/strong&gt;&lt;/figcaption&gt;&lt;/figure&gt;&lt;p style=&quot;margin: 0px 0px 10px; color: rgb(85, 85, 85); font-family: &amp;quot;Open Sans&amp;quot;, sans-serif; font-size: 13px; font-style: normal; font-variant-ligatures: normal; font-variant-caps: normal; font-weight: 400; letter-spacing: normal; orphans: 2; text-align: left; text-indent: 0px; text-transform: none; widows: 2; word-spacing: 0px; -webkit-text-stroke-width: 0px; background-color: rgb(255, 255, 255); text-decoration-thickness: initial; text-decoration-style: initial; text-decoration-color: initial;&quot;&gt;In many cases, new interface metaphors rapidly become integrated into common parlance, as witnessed by the way people talk about them. For example, parents talk about how much screen time children are allowed each day in the same way they talk more generally about spending time. As such, the interface metaphors are no longer talked about as familiar terms to describe less familiar computer-based actions; they have become everyday terms in their own right. Moreover, it is hard not to use metaphorical terms when talking about technology use, as they have become so ingrained in the language that we use to express ourselves. Just ask yourself or someone else to describe Twitter and Facebook and how people use them. Then try doing it without using a single metaphor.&lt;/p&gt;&lt;p style=&quot;margin: 0px 0px 10px; color: rgb(85, 85, 85); font-family: &amp;quot;Open Sans&amp;quot;, sans-serif; font-size: 13px; font-style: normal; font-variant-ligatures: normal; font-variant-caps: normal; font-weight: 400; letter-spacing: normal; orphans: 2; text-align: left; text-indent: 0px; text-transform: none; widows: 2; word-spacing: 0px; -webkit-text-stroke-width: 0px; background-color: rgb(255, 255, 255); text-decoration-thickness: initial; text-decoration-style: initial; text-decoration-color: initial;&quot;&gt;Albrecht Schmidt (2017) suggests a pair of glasses as a good metaphor for thinking about future technologies, helping us think more about how to amplify human cognition. Just as they are seen as an extension of ourselves that we are not aware of most of the time (except when they steam up!), he asks can we design new technologies that enable users to do things without having to think about how to use them? He contrasts this “amplify” metaphor with the “tool” metaphor of a pair of binoculars that is used for a specific task—where someone consciously has to hold them up against their eyes while adjusting the lens to bring what they are looking at into focus. Current devices, like mobile phones, are designed more like binoculars, where people have to interact with them explicitly to perform tasks.&lt;/p&gt;" style="text;whiteSpace=wrap;html=1;" vertex="1" parent="1">
          <mxGeometry x="10" y="90" width="560" height="1200" as="geometry" />
        </mxCell>
        <mxCell id="JHd76zeEmz-U5DrmhZWC-2" value="&lt;h3 style=&quot;margin: 10px 0px; font-family: &amp;quot;Open Sans&amp;quot;, sans-serif; line-height: 3.08rem; color: rgb(85, 85, 85); text-rendering: optimizelegibility; font-size: 1.85rem; font-style: normal; font-variant-ligatures: normal; font-variant-caps: normal; letter-spacing: normal; orphans: 2; text-align: left; text-indent: 0px; text-transform: none; widows: 2; word-spacing: 0px; -webkit-text-stroke-width: 0px; background-color: rgb(255, 255, 255); text-decoration-thickness: initial; text-decoration-style: initial; text-decoration-color: initial; font-weight: 700 !important;&quot;&gt;Disadvantages&lt;/h3&gt;&lt;p style=&quot;margin: 0px 0px 10px; color: rgb(85, 85, 85); font-family: &amp;quot;Open Sans&amp;quot;, sans-serif; font-size: 13px; font-style: normal; font-variant-ligatures: normal; font-variant-caps: normal; font-weight: 400; letter-spacing: normal; orphans: 2; text-align: left; text-indent: 0px; text-transform: none; widows: 2; word-spacing: 0px; -webkit-text-stroke-width: 0px; background-color: rgb(255, 255, 255); text-decoration-thickness: initial; text-decoration-style: initial; text-decoration-color: initial;&quot;&gt;Metaphors are beneficial but sometimes they get in the way of usefulness. Sometimes analogies are inadequate. For example, think in a typewriter as an analogy for a word processor. The analogy provides a preliminary understanding of a word processor; however the analogy is inadequate for promoting a full understanding of how the word processor works. In fact, the metaphor gets in the way of the user understanding the computer.&lt;/p&gt;&lt;p style=&quot;margin: 0px 0px 10px; color: rgb(85, 85, 85); font-family: &amp;quot;Open Sans&amp;quot;, sans-serif; font-size: 13px; font-style: normal; font-variant-ligatures: normal; font-variant-caps: normal; font-weight: 400; letter-spacing: normal; orphans: 2; text-align: left; text-indent: 0px; text-transform: none; widows: 2; word-spacing: 0px; -webkit-text-stroke-width: 0px; background-color: rgb(255, 255, 255); text-decoration-thickness: initial; text-decoration-style: initial; text-decoration-color: initial;&quot;&gt;A similar problem arises with most metaphors. Although the desktop metaphor is initially appealing, it falls short in the computing world because there are no office equivalents for ejecting a USB tick or printing a document. When designers try too hard to make the metaphor stick, the resulting system can be more confusing. Who thinks it is intuitive to drag the icon of a USB stick to the wastebasket in order to eject it from the system? Ordinarily, the wastebasket is used to dispose of things that we never want to use again, which is why it works for deleting files. We must accept that some of the tasks we perform with a computer do not have real-world equivalents, or if they do, we cannot expect a single metaphor to account for all of them.&lt;/p&gt;&lt;p style=&quot;margin: 0px 0px 10px; color: rgb(85, 85, 85); font-family: &amp;quot;Open Sans&amp;quot;, sans-serif; font-size: 13px; font-style: normal; font-variant-ligatures: normal; font-variant-caps: normal; font-weight: 400; letter-spacing: normal; orphans: 2; text-align: left; text-indent: 0px; text-transform: none; widows: 2; word-spacing: 0px; -webkit-text-stroke-width: 0px; background-color: rgb(255, 255, 255); text-decoration-thickness: initial; text-decoration-style: initial; text-decoration-color: initial;&quot;&gt;Another problem with a metaphor is the cultural bias that it portrays. With the growing internationalization of software, it should not be assumed that a metaphor will apply across national boundaries. A meaningless metaphor will only add another layer of complexity between the user and the system.&lt;/p&gt;&lt;p style=&quot;margin: 0px 0px 10px; color: rgb(85, 85, 85); font-family: &amp;quot;Open Sans&amp;quot;, sans-serif; font-size: 13px; font-style: normal; font-variant-ligatures: normal; font-variant-caps: normal; font-weight: 400; letter-spacing: normal; orphans: 2; text-align: left; text-indent: 0px; text-transform: none; widows: 2; word-spacing: 0px; -webkit-text-stroke-width: 0px; background-color: rgb(255, 255, 255); text-decoration-thickness: initial; text-decoration-style: initial; text-decoration-color: initial;&quot;&gt;A more extreme example of metaphor occurs with virtual reality systems. In a VR system, the metaphor is not simply captured on a display screen. Rather, the user is also portrayed within the metaphor, literally creating an alternative, or virtual, reality. Any actions that the user performs are supposed to become more natural and so more movements of the user are interpreted, instead of just keypresses, button clicks and movements of an external pointing device. A VR system also needs to know the location and orientation of the user. Consequently, the user is often ‘rigged’ with special tracking devices so that the system can locate them and interpret their motion correctly.&lt;/p&gt;" style="text;whiteSpace=wrap;html=1;" vertex="1" parent="1">
          <mxGeometry x="585" y="110" width="560" height="550" as="geometry" />
        </mxCell>
        <mxCell id="JHd76zeEmz-U5DrmhZWC-3" value="&lt;h3 style=&quot;margin: 10px 0px; font-family: &amp;quot;Open Sans&amp;quot;, sans-serif; line-height: 3.08rem; color: rgb(85, 85, 85); text-rendering: optimizelegibility; font-size: 1.85rem; font-style: normal; font-variant-ligatures: normal; font-variant-caps: normal; letter-spacing: normal; orphans: 2; text-align: start; text-indent: 0px; text-transform: none; widows: 2; word-spacing: 0px; -webkit-text-stroke-width: 0px; background-color: rgb(255, 255, 255); text-decoration-thickness: initial; text-decoration-style: initial; text-decoration-color: initial; font-weight: 700 !important;&quot;&gt;Metaphor template&lt;/h3&gt;&lt;div class=&quot;box contents&quot; style=&quot;text-align: left; color: rgb(85, 85, 85); font-family: &amp;quot;Open Sans&amp;quot;, sans-serif; font-size: 13px; font-style: normal; font-variant-ligatures: normal; font-variant-caps: normal; font-weight: 400; letter-spacing: normal; orphans: 2; text-indent: 0px; text-transform: none; widows: 2; word-spacing: 0px; -webkit-text-stroke-width: 0px; background-color: rgb(255, 255, 255); text-decoration-thickness: initial; text-decoration-style: initial; text-decoration-color: initial;&quot;&gt;&lt;div class=&quot;no-overflow&quot; style=&quot;overflow: auto; padding-bottom: 1px;&quot;&gt;&lt;p style=&quot;margin: 0px 0px 10px;&quot;&gt;A good metaphor from the user&#39;s point of view should have a lot of matches at the Task level and Appearance level, to help users instantiate and maintain the metaphor&lt;br&gt;You can ask:&amp;nbsp;Are there enough correspondences?&lt;br&gt;If there is more than one candidate metaphor, how do they compare in matches?&lt;/p&gt;&lt;p style=&quot;margin: 0px 0px 10px;&quot;&gt;The following template shows how tasks are explained through candidate metaphors. These tasks are from prior scenarios redacted from the problem being designed for.&lt;/p&gt;&lt;table border=&quot;3&quot; align=&quot;left&quot; cellpadding=&quot;5&quot; cellspacing=&quot;5&quot; style=&quot;max-width: 100%; background-color: transparent; border-collapse: collapse; border-spacing: 0px;&quot;&gt;&lt;tbody&gt;&lt;tr&gt;&lt;td&gt;&lt;/td&gt;&lt;td colspan=&quot;3&quot; style=&quot;text-align: center;&quot;&gt;&lt;strong style=&quot;font-weight: 700;&quot;&gt;Real life&lt;/strong&gt;&lt;/td&gt;&lt;td colspan=&quot;3&quot; style=&quot;text-align: center;&quot;&gt;&lt;strong style=&quot;font-weight: 700;&quot;&gt;System metaphor&lt;/strong&gt;&lt;/td&gt;&lt;/tr&gt;&lt;tr&gt;&lt;td&gt;&lt;em style=&quot;font-style: italic;&quot;&gt;Scenarios&lt;/em&gt;&lt;/td&gt;&lt;td style=&quot;text-align: center;&quot;&gt;&lt;em style=&quot;font-style: italic;&quot;&gt;Tasks&lt;/em&gt;&lt;/td&gt;&lt;td style=&quot;text-align: center;&quot;&gt;&lt;em style=&quot;font-style: italic;&quot;&gt;Methods&lt;/em&gt;&lt;/td&gt;&lt;td style=&quot;text-align: center;&quot;&gt;&lt;em style=&quot;font-style: italic;&quot;&gt;Appearance&lt;/em&gt;&lt;/td&gt;&lt;td style=&quot;text-align: center;&quot;&gt;&lt;em style=&quot;font-style: italic;&quot;&gt;Tasks&lt;/em&gt;&lt;/td&gt;&lt;td style=&quot;text-align: center;&quot;&gt;&lt;em style=&quot;font-style: italic;&quot;&gt;Methods&lt;/em&gt;&lt;/td&gt;&lt;td style=&quot;text-align: center;&quot;&gt;&lt;em style=&quot;font-style: italic;&quot;&gt;Appearance&lt;/em&gt;&lt;/td&gt;&lt;/tr&gt;&lt;tr&gt;&lt;td style=&quot;text-align: center;&quot;&gt;1&lt;/td&gt;&lt;td&gt;Remove document from a folder view&lt;/td&gt;&lt;td&gt;Open folder by pulling back folder cover&lt;/td&gt;&lt;td rowspan=&quot;2&quot;&gt;3D folder paper that unfolds&lt;/td&gt;&lt;td&gt;Remove file from a file directory to view&lt;/td&gt;&lt;td&gt;Open folder by double clicking folder icon&lt;/td&gt;&lt;td rowspan=&quot;2&quot;&gt;2D icon that expands to a 2D window&lt;/td&gt;&lt;/tr&gt;&lt;tr&gt;&lt;td style=&quot;text-align: center;&quot;&gt;2&lt;/td&gt;&lt;td&gt;Organizes collections of documents in folders&lt;/td&gt;&lt;td&gt;Insert document by moving into folder&lt;/td&gt;&lt;td&gt;Organize collections of files in file directories&lt;/td&gt;&lt;td&gt;Drag files into Folder Window&lt;/td&gt;&lt;/tr&gt;&lt;/tbody&gt;&lt;/table&gt;&lt;/div&gt;&lt;/div&gt;" style="text;whiteSpace=wrap;html=1;" vertex="1" parent="1">
          <mxGeometry x="585" y="620" width="560" height="460" as="geometry" />
        </mxCell>
      </root>
    </mxGraphModel>
  </diagram>
</mxfile>
